<svg width="469" height="418" viewBox="0 0 469 418" fill="none" xmlns="http://www.w3.org/2000/svg">
<g filter="url(#filter0_d_1_365)">
<rect x="125" y="59" width="267" height="216" rx="5.74766" fill="white"/>
</g>
<line x1="182.39" y1="126.843" x2="182.39" y2="246.5" stroke="#EEEEEE" stroke-width="0.836767"/>
<line x1="356" y1="246.418" x2="182" y2="246.418" stroke="#EEEEEE" stroke-width="0.836767"/>
<path d="M146.414 249.758H151.012V248.701H148.042L149.651 247.008C150.086 246.555 150.405 246.153 150.607 245.804C150.816 245.454 150.92 245.093 150.92 244.719C150.92 244.339 150.825 244.004 150.635 243.716C150.451 243.428 150.19 243.204 149.853 243.045C149.522 242.879 149.136 242.797 148.694 242.797C148.327 242.797 147.977 242.87 147.646 243.017C147.321 243.158 147.045 243.364 146.818 243.633C146.592 243.897 146.441 244.21 146.368 244.571L147.462 244.912C147.56 244.587 147.717 244.342 147.931 244.176C148.146 244.004 148.4 243.919 148.694 243.919C148.976 243.919 149.206 244.001 149.384 244.167C149.568 244.332 149.66 244.559 149.66 244.847C149.66 245.019 149.62 245.188 149.541 245.353C149.461 245.519 149.32 245.718 149.117 245.951C148.915 246.184 148.633 246.49 148.271 246.871L146.414 248.82V249.758ZM154.209 249.869C154.681 249.869 155.101 249.767 155.469 249.565C155.837 249.357 156.125 249.078 156.334 248.728C156.548 248.373 156.655 247.974 156.655 247.533C156.655 247.097 156.564 246.711 156.38 246.374C156.196 246.031 155.935 245.761 155.598 245.565C155.267 245.368 154.874 245.27 154.421 245.27C153.985 245.27 153.627 245.359 153.345 245.537L153.556 243.965H156.398V242.907H152.664L152.122 246.714L153.143 246.944C153.228 246.748 153.366 246.598 153.556 246.494C153.753 246.389 153.97 246.337 154.209 246.337C154.559 246.337 154.844 246.448 155.065 246.668C155.285 246.889 155.396 247.177 155.396 247.533C155.396 247.888 155.285 248.179 155.065 248.406C154.844 248.633 154.559 248.747 154.209 248.747C153.927 248.747 153.67 248.67 153.437 248.517C153.204 248.357 153.035 248.124 152.931 247.818L151.846 248.204C151.932 248.547 152.091 248.845 152.324 249.096C152.563 249.347 152.845 249.541 153.17 249.675C153.501 249.804 153.848 249.869 154.209 249.869ZM159.619 246.383C159.956 246.383 160.26 246.303 160.529 246.144C160.799 245.979 161.014 245.761 161.173 245.491C161.332 245.221 161.412 244.921 161.412 244.59C161.412 244.259 161.332 243.958 161.173 243.689C161.014 243.413 160.799 243.195 160.529 243.036C160.26 242.876 159.956 242.797 159.619 242.797C159.282 242.797 158.975 242.876 158.699 243.036C158.423 243.195 158.206 243.413 158.046 243.689C157.887 243.958 157.807 244.259 157.807 244.59C157.807 244.921 157.887 245.221 158.046 245.491C158.206 245.761 158.423 245.979 158.699 246.144C158.975 246.303 159.282 246.383 159.619 246.383ZM158.543 249.758H159.83L165.385 242.907H164.097L158.543 249.758ZM159.619 245.454C159.355 245.454 159.147 245.365 158.993 245.188C158.846 245.01 158.773 244.811 158.773 244.59C158.773 244.369 158.846 244.17 158.993 243.992C159.147 243.808 159.355 243.716 159.619 243.716C159.882 243.716 160.085 243.808 160.226 243.992C160.373 244.17 160.446 244.369 160.446 244.59C160.446 244.811 160.373 245.01 160.226 245.188C160.085 245.365 159.882 245.454 159.619 245.454ZM164.281 249.869C164.619 249.869 164.922 249.789 165.192 249.629C165.468 249.464 165.685 249.246 165.845 248.976C166.004 248.707 166.084 248.406 166.084 248.075C166.084 247.744 166.004 247.444 165.845 247.174C165.685 246.898 165.468 246.68 165.192 246.521C164.922 246.362 164.619 246.282 164.281 246.282C163.944 246.282 163.638 246.362 163.362 246.521C163.092 246.68 162.877 246.898 162.718 247.174C162.559 247.444 162.479 247.744 162.479 248.075C162.479 248.406 162.559 248.707 162.718 248.976C162.877 249.246 163.092 249.464 163.362 249.629C163.638 249.789 163.944 249.869 164.281 249.869ZM164.281 248.94C164.018 248.94 163.812 248.851 163.665 248.673C163.518 248.495 163.444 248.296 163.444 248.075C163.444 247.855 163.518 247.655 163.665 247.478C163.812 247.294 164.018 247.202 164.281 247.202C164.545 247.202 164.75 247.294 164.897 247.478C165.045 247.655 165.118 247.855 165.118 248.075C165.118 248.296 165.045 248.495 164.897 248.673C164.75 248.851 164.545 248.94 164.281 248.94Z" fill="#131126"/>
<path d="M148.722 215.561C149.194 215.561 149.614 215.46 149.982 215.258C150.35 215.049 150.638 214.77 150.846 214.421C151.061 214.065 151.168 213.667 151.168 213.225C151.168 212.79 151.076 212.404 150.892 212.066C150.708 211.723 150.448 211.453 150.111 211.257C149.78 211.061 149.387 210.963 148.934 210.963C148.498 210.963 148.14 211.052 147.858 211.23L148.069 209.657H150.911V208.599H147.177L146.634 212.407L147.655 212.637C147.741 212.44 147.879 212.29 148.069 212.186C148.265 212.082 148.483 212.03 148.722 212.03C149.072 212.03 149.357 212.14 149.577 212.361C149.798 212.581 149.908 212.87 149.908 213.225C149.908 213.581 149.798 213.872 149.577 214.099C149.357 214.326 149.072 214.439 148.722 214.439C148.44 214.439 148.183 214.362 147.95 214.209C147.717 214.05 147.548 213.817 147.444 213.51L146.359 213.897C146.444 214.24 146.604 214.537 146.837 214.789C147.076 215.04 147.358 215.233 147.683 215.368C148.014 215.497 148.36 215.561 148.722 215.561ZM154.904 215.561C155.456 215.561 155.937 215.414 156.348 215.12C156.759 214.819 157.077 214.405 157.304 213.878C157.537 213.345 157.654 212.726 157.654 212.02C157.654 211.315 157.537 210.699 157.304 210.172C157.077 209.639 156.756 209.225 156.339 208.931C155.928 208.636 155.447 208.489 154.895 208.489C154.355 208.489 153.88 208.636 153.469 208.931C153.059 209.225 152.737 209.636 152.504 210.163C152.277 210.69 152.164 211.309 152.164 212.02C152.164 212.726 152.277 213.345 152.504 213.878C152.737 214.412 153.059 214.825 153.469 215.12C153.886 215.414 154.365 215.561 154.904 215.561ZM154.904 214.421C154.438 214.421 154.073 214.206 153.81 213.777C153.546 213.348 153.414 212.762 153.414 212.02C153.414 211.273 153.543 210.687 153.801 210.264C154.064 209.841 154.429 209.629 154.895 209.629C155.367 209.629 155.735 209.844 155.998 210.273C156.268 210.696 156.403 211.279 156.403 212.02C156.403 212.762 156.271 213.348 156.008 213.777C155.744 214.206 155.376 214.421 154.904 214.421ZM160.643 212.076C160.98 212.076 161.283 211.996 161.553 211.837C161.823 211.671 162.037 211.453 162.197 211.184C162.356 210.914 162.436 210.613 162.436 210.282C162.436 209.951 162.356 209.651 162.197 209.381C162.037 209.105 161.823 208.888 161.553 208.728C161.283 208.569 160.98 208.489 160.643 208.489C160.305 208.489 159.999 208.569 159.723 208.728C159.447 208.888 159.229 209.105 159.07 209.381C158.911 209.651 158.831 209.951 158.831 210.282C158.831 210.613 158.911 210.914 159.07 211.184C159.229 211.453 159.447 211.671 159.723 211.837C159.999 211.996 160.305 212.076 160.643 212.076ZM159.567 215.451H160.854L166.409 208.599H165.121L159.567 215.451ZM160.643 211.147C160.379 211.147 160.171 211.058 160.017 210.88C159.87 210.702 159.797 210.503 159.797 210.282C159.797 210.062 159.87 209.862 160.017 209.685C160.171 209.501 160.379 209.409 160.643 209.409C160.906 209.409 161.109 209.501 161.25 209.685C161.397 209.862 161.47 210.062 161.47 210.282C161.47 210.503 161.397 210.702 161.25 210.88C161.109 211.058 160.906 211.147 160.643 211.147ZM165.305 215.561C165.642 215.561 165.946 215.481 166.216 215.322C166.491 215.156 166.709 214.939 166.869 214.669C167.028 214.399 167.108 214.099 167.108 213.768C167.108 213.437 167.028 213.136 166.869 212.867C166.709 212.591 166.491 212.373 166.216 212.214C165.946 212.054 165.642 211.974 165.305 211.974C164.968 211.974 164.661 212.054 164.386 212.214C164.116 212.373 163.901 212.591 163.742 212.867C163.582 213.136 163.503 213.437 163.503 213.768C163.503 214.099 163.582 214.399 163.742 214.669C163.901 214.939 164.116 215.156 164.386 215.322C164.661 215.481 164.968 215.561 165.305 215.561ZM165.305 214.632C165.042 214.632 164.836 214.543 164.689 214.366C164.542 214.188 164.468 213.988 164.468 213.768C164.468 213.547 164.542 213.348 164.689 213.17C164.836 212.986 165.042 212.894 165.305 212.894C165.569 212.894 165.774 212.986 165.921 213.17C166.068 213.348 166.142 213.547 166.142 213.768C166.142 213.988 166.068 214.188 165.921 214.366C165.774 214.543 165.569 214.632 165.305 214.632Z" fill="#131126"/>
<path d="M146.653 181.144H148.032L150.819 175.341V174.283H146.276V175.341H149.504L146.653 181.144ZM153.679 181.254C154.151 181.254 154.571 181.153 154.939 180.951C155.307 180.742 155.595 180.463 155.804 180.114C156.018 179.758 156.126 179.36 156.126 178.918C156.126 178.483 156.034 178.097 155.85 177.76C155.666 177.416 155.405 177.146 155.068 176.95C154.737 176.754 154.345 176.656 153.891 176.656C153.456 176.656 153.097 176.745 152.815 176.923L153.026 175.35H155.868V174.293H152.134L151.592 178.1L152.613 178.33C152.698 178.134 152.836 177.983 153.026 177.879C153.223 177.775 153.44 177.723 153.679 177.723C154.029 177.723 154.314 177.833 154.535 178.054C154.755 178.275 154.866 178.563 154.866 178.918C154.866 179.274 154.755 179.565 154.535 179.792C154.314 180.019 154.029 180.132 153.679 180.132C153.397 180.132 153.14 180.056 152.907 179.902C152.674 179.743 152.505 179.51 152.401 179.203L151.316 179.59C151.402 179.933 151.561 180.23 151.794 180.482C152.033 180.733 152.315 180.926 152.64 181.061C152.971 181.19 153.318 181.254 153.679 181.254ZM159.089 177.769C159.426 177.769 159.73 177.689 159.999 177.53C160.269 177.364 160.484 177.146 160.643 176.877C160.803 176.607 160.882 176.307 160.882 175.975C160.882 175.644 160.803 175.344 160.643 175.074C160.484 174.798 160.269 174.581 159.999 174.421C159.73 174.262 159.426 174.182 159.089 174.182C158.752 174.182 158.445 174.262 158.169 174.421C157.893 174.581 157.676 174.798 157.516 175.074C157.357 175.344 157.277 175.644 157.277 175.975C157.277 176.307 157.357 176.607 157.516 176.877C157.676 177.146 157.893 177.364 158.169 177.53C158.445 177.689 158.752 177.769 159.089 177.769ZM158.013 181.144H159.3L164.855 174.293H163.568L158.013 181.144ZM159.089 176.84C158.825 176.84 158.617 176.751 158.464 176.573C158.316 176.395 158.243 176.196 158.243 175.975C158.243 175.755 158.316 175.556 158.464 175.378C158.617 175.194 158.825 175.102 159.089 175.102C159.353 175.102 159.555 175.194 159.696 175.378C159.843 175.556 159.917 175.755 159.917 175.975C159.917 176.196 159.843 176.395 159.696 176.573C159.555 176.751 159.353 176.84 159.089 176.84ZM163.751 181.254C164.089 181.254 164.392 181.174 164.662 181.015C164.938 180.85 165.155 180.632 165.315 180.362C165.474 180.092 165.554 179.792 165.554 179.461C165.554 179.13 165.474 178.829 165.315 178.56C165.155 178.284 164.938 178.066 164.662 177.907C164.392 177.747 164.089 177.668 163.751 177.668C163.414 177.668 163.108 177.747 162.832 177.907C162.562 178.066 162.348 178.284 162.188 178.56C162.029 178.829 161.949 179.13 161.949 179.461C161.949 179.792 162.029 180.092 162.188 180.362C162.348 180.632 162.562 180.85 162.832 181.015C163.108 181.174 163.414 181.254 163.751 181.254ZM163.751 180.325C163.488 180.325 163.282 180.236 163.135 180.059C162.988 179.881 162.915 179.682 162.915 179.461C162.915 179.24 162.988 179.041 163.135 178.863C163.282 178.679 163.488 178.587 163.751 178.587C164.015 178.587 164.22 178.679 164.368 178.863C164.515 179.041 164.588 179.24 164.588 179.461C164.588 179.682 164.515 179.881 164.368 180.059C164.22 180.236 164.015 180.325 163.751 180.325Z" fill="#131126"/>
<path d="M147.582 146.836H148.832V139.984H146.257V141.051H147.582V146.836ZM152.955 146.946C153.507 146.946 153.988 146.799 154.399 146.505C154.81 146.204 155.129 145.79 155.356 145.263C155.588 144.73 155.705 144.111 155.705 143.405C155.705 142.7 155.588 142.084 155.356 141.557C155.129 141.024 154.807 140.61 154.39 140.316C153.979 140.021 153.498 139.874 152.946 139.874C152.407 139.874 151.931 140.021 151.521 140.316C151.11 140.61 150.788 141.021 150.555 141.548C150.328 142.075 150.215 142.694 150.215 143.405C150.215 144.111 150.328 144.73 150.555 145.263C150.788 145.797 151.11 146.21 151.521 146.505C151.938 146.799 152.416 146.946 152.955 146.946ZM152.955 145.806C152.489 145.806 152.125 145.591 151.861 145.162C151.597 144.733 151.465 144.147 151.465 143.405C151.465 142.658 151.594 142.072 151.852 141.649C152.115 141.226 152.48 141.014 152.946 141.014C153.418 141.014 153.786 141.229 154.05 141.658C154.319 142.081 154.454 142.664 154.454 143.405C154.454 144.147 154.322 144.733 154.059 145.162C153.795 145.591 153.427 145.806 152.955 145.806ZM159.466 146.946C160.018 146.946 160.499 146.799 160.91 146.505C161.321 146.204 161.64 145.79 161.867 145.263C162.099 144.73 162.216 144.111 162.216 143.405C162.216 142.7 162.099 142.084 161.867 141.557C161.64 141.024 161.318 140.61 160.901 140.316C160.49 140.021 160.009 139.874 159.457 139.874C158.918 139.874 158.442 140.021 158.032 140.316C157.621 140.61 157.299 141.021 157.066 141.548C156.839 142.075 156.726 142.694 156.726 143.405C156.726 144.111 156.839 144.73 157.066 145.263C157.299 145.797 157.621 146.21 158.032 146.505C158.449 146.799 158.927 146.946 159.466 146.946ZM159.466 145.806C159 145.806 158.636 145.591 158.372 145.162C158.108 144.733 157.977 144.147 157.977 143.405C157.977 142.658 158.105 142.072 158.363 141.649C158.626 141.226 158.991 141.014 159.457 141.014C159.929 141.014 160.297 141.229 160.561 141.658C160.83 142.081 160.965 142.664 160.965 143.405C160.965 144.147 160.833 144.733 160.57 145.162C160.306 145.591 159.938 145.806 159.466 145.806ZM165.205 143.461C165.542 143.461 165.846 143.381 166.115 143.222C166.385 143.056 166.6 142.838 166.759 142.569C166.918 142.299 166.998 141.998 166.998 141.667C166.998 141.336 166.918 141.036 166.759 140.766C166.6 140.49 166.385 140.273 166.115 140.113C165.846 139.954 165.542 139.874 165.205 139.874C164.868 139.874 164.561 139.954 164.285 140.113C164.009 140.273 163.792 140.49 163.632 140.766C163.473 141.036 163.393 141.336 163.393 141.667C163.393 141.998 163.473 142.299 163.632 142.569C163.792 142.838 164.009 143.056 164.285 143.222C164.561 143.381 164.868 143.461 165.205 143.461ZM164.129 146.836H165.416L170.971 139.984H169.683L164.129 146.836ZM165.205 142.532C164.941 142.532 164.733 142.443 164.579 142.265C164.432 142.087 164.359 141.888 164.359 141.667C164.359 141.447 164.432 141.247 164.579 141.07C164.733 140.886 164.941 140.794 165.205 140.794C165.468 140.794 165.671 140.886 165.812 141.07C165.959 141.247 166.033 141.447 166.033 141.667C166.033 141.888 165.959 142.087 165.812 142.265C165.671 142.443 165.468 142.532 165.205 142.532ZM169.867 146.946C170.205 146.946 170.508 146.866 170.778 146.707C171.054 146.541 171.271 146.324 171.431 146.054C171.59 145.784 171.67 145.484 171.67 145.153C171.67 144.822 171.59 144.521 171.431 144.252C171.271 143.976 171.054 143.758 170.778 143.599C170.508 143.439 170.205 143.36 169.867 143.36C169.53 143.36 169.224 143.439 168.948 143.599C168.678 143.758 168.463 143.976 168.304 144.252C168.145 144.521 168.065 144.822 168.065 145.153C168.065 145.484 168.145 145.784 168.304 146.054C168.463 146.324 168.678 146.541 168.948 146.707C169.224 146.866 169.53 146.946 169.867 146.946ZM169.867 146.017C169.604 146.017 169.398 145.928 169.251 145.751C169.104 145.573 169.03 145.373 169.03 145.153C169.03 144.932 169.104 144.733 169.251 144.555C169.398 144.371 169.604 144.279 169.867 144.279C170.131 144.279 170.336 144.371 170.483 144.555C170.631 144.733 170.704 144.932 170.704 145.153C170.704 145.373 170.631 145.573 170.483 145.751C170.336 145.928 170.131 146.017 169.867 146.017Z" fill="#131126"/>
<path d="M182 246C182.849 233.14 191.675 203.149 198.04 202.597C219.426 200.742 252.014 210.387 272.636 189.613C301.97 160.063 331.703 170.694 344.178 168.097C354.158 166.019 360.218 157.833 362 154" stroke="#FAE0E1" stroke-width="4.18383"/>
<g filter="url(#filter1_d_1_365)">
<circle cx="207.074" cy="198.805" r="10.0412" fill="white"/>
</g>
<circle r="5.85737" transform="matrix(1 0 0 -1 207.075 198.805)" fill="#3C3679"/>
<g filter="url(#filter2_d_1_365)">
<circle cx="325.864" cy="167.901" r="10.0412" fill="white"/>
</g>
<circle r="5.85737" transform="matrix(1 0 0 -1 325.863 167.902)" fill="#3C3679"/>
<path d="M147.074 100.841H152.128C153.469 100.841 154.515 100.519 155.266 99.8755C156.028 99.221 156.408 98.3198 156.408 97.1718C156.408 96.6246 156.301 96.1096 156.087 95.6268C155.872 95.144 155.497 94.7309 154.96 94.3876C155.293 94.0872 155.534 93.7546 155.684 93.3898C155.845 93.025 155.926 92.6388 155.926 92.2311C155.926 91.1796 155.588 90.3535 154.912 89.7527C154.236 89.1518 153.308 88.8514 152.128 88.8514H147.074V100.841ZM149.263 93.5024V90.7183H152.24C152.691 90.7183 153.05 90.8417 153.319 91.0884C153.587 91.3352 153.721 91.6678 153.721 92.0862C153.721 92.5047 153.587 92.848 153.319 93.1162C153.05 93.3737 152.691 93.5024 152.24 93.5024H149.263ZM149.263 98.9098V95.4176H152.353C152.922 95.4176 153.372 95.5785 153.705 95.9004C154.048 96.2115 154.22 96.6353 154.22 97.1718C154.22 97.6975 154.048 98.1213 153.705 98.4431C153.372 98.7543 152.922 98.9098 152.353 98.9098H149.263ZM161.146 101.034C161.694 101.034 162.176 100.932 162.595 100.728C163.024 100.514 163.362 100.203 163.609 99.795V100.841H165.604V92.0862H163.496V97.22C163.496 97.7994 163.33 98.2607 162.997 98.6041C162.665 98.9367 162.241 99.103 161.726 99.103C161.2 99.103 160.771 98.9367 160.438 98.6041C160.117 98.2715 159.956 97.8262 159.956 97.2683V92.0862H157.847V97.4453C157.847 98.5182 158.137 99.3873 158.716 100.052C159.306 100.707 160.117 101.034 161.146 101.034ZM170.895 101.034C171.561 101.034 172.14 100.922 172.634 100.696C173.127 100.471 173.513 100.16 173.792 99.7628C174.071 99.3551 174.211 98.8884 174.211 98.3627C174.211 97.7511 174.018 97.2254 173.631 96.7855C173.245 96.3456 172.687 96.0238 171.958 95.8199L170.558 95.4015C170.257 95.3156 170.01 95.203 169.817 95.0635C169.624 94.924 169.528 94.7309 169.528 94.4841C169.528 94.2267 169.629 94.0174 169.833 93.8565C170.037 93.6956 170.316 93.6151 170.67 93.6151C171.11 93.6151 171.507 93.7331 171.861 93.9692C172.226 94.2052 172.478 94.5217 172.617 94.9187L174.227 94.1623C173.959 93.4542 173.508 92.9016 172.875 92.5047C172.242 92.097 171.512 91.8931 170.686 91.8931C170.053 91.8931 169.49 92.0058 168.996 92.2311C168.514 92.4564 168.133 92.7729 167.854 93.1806C167.586 93.5776 167.451 94.0443 167.451 94.5807C167.451 95.1815 167.639 95.7019 168.015 96.1418C168.401 96.5817 168.964 96.9089 169.705 97.1235L171.137 97.5258C171.416 97.6009 171.652 97.7136 171.845 97.8638C172.049 98.0033 172.151 98.1964 172.151 98.4431C172.151 98.7328 172.033 98.9635 171.797 99.1352C171.571 99.2961 171.271 99.3766 170.895 99.3766C170.402 99.3766 169.957 99.2371 169.56 98.9581C169.163 98.6792 168.846 98.2929 168.61 97.7994L167.033 98.5558C167.291 99.3068 167.763 99.9076 168.449 100.358C169.147 100.809 169.962 101.034 170.895 101.034ZM175.831 91.1045H177.939V88.8514H175.831V91.1045ZM175.831 100.841H177.939V92.0862H175.831V100.841ZM179.886 100.841H181.994V95.7073C181.994 95.1386 182.155 94.6826 182.477 94.3393C182.809 93.996 183.238 93.8243 183.764 93.8243C184.29 93.8243 184.714 93.996 185.036 94.3393C185.368 94.6719 185.534 95.1279 185.534 95.7073V100.841H187.643V95.2084C187.643 94.5539 187.503 93.9799 187.224 93.4864C186.945 92.9821 186.554 92.5905 186.049 92.3115C185.556 92.0326 184.987 91.8931 184.344 91.8931C183.796 91.8931 183.303 92.0004 182.863 92.215C182.434 92.4295 182.101 92.7461 181.865 93.1645V92.0862H179.886V100.841ZM193.578 101.034C194.468 101.034 195.246 100.836 195.911 100.439C196.587 100.031 197.059 99.516 197.327 98.8938L195.621 98.0569C195.428 98.3895 195.16 98.6631 194.817 98.8777C194.484 99.0815 194.076 99.1834 193.594 99.1834C192.961 99.1834 192.43 98.9903 192 98.6041C191.571 98.2178 191.324 97.7028 191.26 97.0591H197.569C197.612 96.9411 197.638 96.807 197.649 96.6568C197.671 96.4958 197.681 96.3349 197.681 96.174C197.681 95.3907 197.515 94.6773 197.183 94.0335C196.85 93.3898 196.367 92.8748 195.734 92.4886C195.101 92.0916 194.329 91.8931 193.417 91.8931C192.601 91.8931 191.861 92.0916 191.196 92.4886C190.541 92.8855 190.021 93.4273 189.635 94.114C189.259 94.7899 189.071 95.5678 189.071 96.4476C189.071 97.2951 189.259 98.0676 189.635 98.765C190.01 99.4624 190.536 100.015 191.212 100.423C191.888 100.83 192.676 101.034 193.578 101.034ZM193.417 93.6312C193.975 93.6312 194.436 93.8029 194.801 94.1462C195.176 94.4788 195.385 94.9133 195.428 95.4498H191.308C191.426 94.8704 191.673 94.4251 192.049 94.114C192.435 93.7921 192.891 93.6312 193.417 93.6312ZM202.611 101.034C203.276 101.034 203.855 100.922 204.349 100.696C204.843 100.471 205.229 100.16 205.508 99.7628C205.787 99.3551 205.926 98.8884 205.926 98.3627C205.926 97.7511 205.733 97.2254 205.347 96.7855C204.961 96.3456 204.403 96.0238 203.673 95.8199L202.273 95.4015C201.973 95.3156 201.726 95.203 201.533 95.0635C201.34 94.924 201.243 94.7309 201.243 94.4841C201.243 94.2267 201.345 94.0174 201.549 93.8565C201.753 93.6956 202.032 93.6151 202.386 93.6151C202.825 93.6151 203.222 93.7331 203.577 93.9692C203.941 94.2052 204.193 94.5217 204.333 94.9187L205.942 94.1623C205.674 93.4542 205.223 92.9016 204.59 92.5047C203.957 92.097 203.228 91.8931 202.402 91.8931C201.769 91.8931 201.205 92.0058 200.712 92.2311C200.229 92.4564 199.848 92.7729 199.569 93.1806C199.301 93.5776 199.167 94.0443 199.167 94.5807C199.167 95.1815 199.355 95.7019 199.73 96.1418C200.116 96.5817 200.68 96.9089 201.42 97.1235L202.852 97.5258C203.131 97.6009 203.367 97.7136 203.56 97.8638C203.764 98.0033 203.866 98.1964 203.866 98.4431C203.866 98.7328 203.748 98.9635 203.512 99.1352C203.287 99.2961 202.986 99.3766 202.611 99.3766C202.117 99.3766 201.672 99.2371 201.275 98.9581C200.878 98.6792 200.562 98.2929 200.326 97.7994L198.748 98.5558C199.006 99.3068 199.478 99.9076 200.165 100.358C200.862 100.809 201.677 101.034 202.611 101.034ZM210.878 101.034C211.543 101.034 212.122 100.922 212.616 100.696C213.109 100.471 213.496 100.16 213.774 99.7628C214.053 99.3551 214.193 98.8884 214.193 98.3627C214.193 97.7511 214 97.2254 213.614 96.7855C213.227 96.3456 212.669 96.0238 211.94 95.8199L210.54 95.4015C210.239 95.3156 209.993 95.203 209.799 95.0635C209.606 94.924 209.51 94.7309 209.51 94.4841C209.51 94.2267 209.612 94.0174 209.815 93.8565C210.019 93.6956 210.298 93.6151 210.652 93.6151C211.092 93.6151 211.489 93.7331 211.843 93.9692C212.208 94.2052 212.46 94.5217 212.6 94.9187L214.209 94.1623C213.941 93.4542 213.49 92.9016 212.857 92.5047C212.224 92.097 211.495 91.8931 210.668 91.8931C210.035 91.8931 209.472 92.0058 208.979 92.2311C208.496 92.4564 208.115 92.7729 207.836 93.1806C207.568 93.5776 207.434 94.0443 207.434 94.5807C207.434 95.1815 207.621 95.7019 207.997 96.1418C208.383 96.5817 208.946 96.9089 209.687 97.1235L211.119 97.5258C211.398 97.6009 211.634 97.7136 211.827 97.8638C212.031 98.0033 212.133 98.1964 212.133 98.4431C212.133 98.7328 212.015 98.9635 211.779 99.1352C211.554 99.2961 211.253 99.3766 210.878 99.3766C210.384 99.3766 209.939 99.2371 209.542 98.9581C209.145 98.6792 208.828 98.2929 208.592 97.7994L207.015 98.5558C207.273 99.3068 207.745 99.9076 208.431 100.358C209.129 100.809 209.944 101.034 210.878 101.034ZM222.665 100.938C223.019 100.938 223.367 100.911 223.711 100.857V99.0386C223.507 99.0708 223.319 99.0869 223.147 99.0869C222.632 99.0869 222.257 98.9689 222.021 98.7328C221.785 98.4968 221.667 98.1588 221.667 97.7189V93.9692H223.679V92.0862H221.667V90.0906H219.559V90.7666C219.559 91.1957 219.441 91.523 219.205 91.7483C218.968 91.9736 218.636 92.0862 218.207 92.0862H218.046V93.9692H219.559V97.8316C219.559 98.8079 219.827 99.5697 220.363 100.117C220.91 100.664 221.678 100.938 222.665 100.938ZM225.321 100.841H227.43V95.7073C227.43 95.1386 227.596 94.6826 227.929 94.3393C228.261 93.996 228.685 93.8243 229.2 93.8243C229.715 93.8243 230.139 93.996 230.471 94.3393C230.804 94.6719 230.97 95.1279 230.97 95.7073V100.841H233.078V95.2084C233.078 94.5539 232.939 93.9799 232.66 93.4864C232.381 92.9821 231.989 92.5905 231.485 92.3115C230.992 92.0326 230.423 91.8931 229.779 91.8931C229.275 91.8931 228.819 91.9843 228.411 92.1667C228.004 92.3384 227.676 92.6012 227.43 92.9553V88.7066H225.321V100.841ZM234.861 100.841H236.969V95.9647C236.969 95.2996 237.152 94.7846 237.517 94.4198C237.892 94.0443 238.375 93.8565 238.965 93.8565H239.721V91.9897H239.206C238.67 91.9897 238.198 92.0862 237.79 92.2793C237.383 92.4725 237.066 92.8212 236.841 93.3254V92.0862H234.861V100.841ZM240.881 91.1045H242.989V88.8514H240.881V91.1045ZM240.881 100.841H242.989V92.0862H240.881V100.841ZM247.575 100.841H249.441L252.885 92.0862H250.584L248.508 97.7994L246.432 92.0862H244.131L247.575 100.841ZM258.046 101.034C258.936 101.034 259.714 100.836 260.379 100.439C261.055 100.031 261.527 99.516 261.795 98.8938L260.09 98.0569C259.896 98.3895 259.628 98.6631 259.285 98.8777C258.952 99.0815 258.545 99.1834 258.062 99.1834C257.429 99.1834 256.898 98.9903 256.469 98.6041C256.039 98.2178 255.793 97.7028 255.728 97.0591H262.037C262.08 96.9411 262.107 96.807 262.117 96.6568C262.139 96.4958 262.15 96.3349 262.15 96.174C262.15 95.3907 261.983 94.6773 261.651 94.0335C261.318 93.3898 260.835 92.8748 260.202 92.4886C259.569 92.0916 258.797 91.8931 257.885 91.8931C257.069 91.8931 256.329 92.0916 255.664 92.4886C255.009 92.8855 254.489 93.4273 254.103 94.114C253.727 94.7899 253.54 95.5678 253.54 96.4476C253.54 97.2951 253.727 98.0676 254.103 98.765C254.478 99.4624 255.004 100.015 255.68 100.423C256.356 100.83 257.144 101.034 258.046 101.034ZM257.885 93.6312C258.443 93.6312 258.904 93.8029 259.269 94.1462C259.644 94.4788 259.854 94.9133 259.896 95.4498H255.777C255.895 94.8704 256.141 94.4251 256.517 94.114C256.903 93.7921 257.359 93.6312 257.885 93.6312ZM269.939 101.034C270.605 101.034 271.184 100.922 271.677 100.696C272.171 100.471 272.557 100.16 272.836 99.7628C273.115 99.3551 273.255 98.8884 273.255 98.3627C273.255 97.7511 273.062 97.2254 272.675 96.7855C272.289 96.3456 271.731 96.0238 271.002 95.8199L269.601 95.4015C269.301 95.3156 269.054 95.203 268.861 95.0635C268.668 94.924 268.571 94.7309 268.571 94.4841C268.571 94.2267 268.673 94.0174 268.877 93.8565C269.081 93.6956 269.36 93.6151 269.714 93.6151C270.154 93.6151 270.551 93.7331 270.905 93.9692C271.27 94.2052 271.522 94.5217 271.661 94.9187L273.271 94.1623C273.003 93.4542 272.552 92.9016 271.919 92.5047C271.286 92.097 270.556 91.8931 269.73 91.8931C269.097 91.8931 268.534 92.0058 268.04 92.2311C267.558 92.4564 267.177 92.7729 266.898 93.1806C266.63 93.5776 266.495 94.0443 266.495 94.5807C266.495 95.1815 266.683 95.7019 267.059 96.1418C267.445 96.5817 268.008 96.9089 268.748 97.1235L270.181 97.5258C270.46 97.6009 270.696 97.7136 270.889 97.8638C271.093 98.0033 271.195 98.1964 271.195 98.4431C271.195 98.7328 271.077 98.9635 270.841 99.1352C270.615 99.2961 270.315 99.3766 269.939 99.3766C269.446 99.3766 269.001 99.2371 268.604 98.9581C268.207 98.6792 267.89 98.2929 267.654 97.7994L266.077 98.5558C266.334 99.3068 266.807 99.9076 267.493 100.358C268.191 100.809 269.006 101.034 269.939 101.034ZM277.997 101.034C278.544 101.034 279.027 100.932 279.445 100.728C279.875 100.514 280.212 100.203 280.459 99.795V100.841H282.455V92.0862H280.347V97.22C280.347 97.7994 280.18 98.2607 279.848 98.6041C279.515 98.9367 279.091 99.103 278.576 99.103C278.051 99.103 277.621 98.9367 277.289 98.6041C276.967 98.2715 276.806 97.8262 276.806 97.2683V92.0862H274.698V97.4453C274.698 98.5182 274.987 99.3873 275.567 100.052C276.157 100.707 276.967 101.034 277.997 101.034ZM284.415 104.06H286.523V100.004C286.845 100.337 287.236 100.594 287.698 100.777C288.159 100.948 288.658 101.034 289.194 101.034C290.042 101.034 290.798 100.836 291.464 100.439C292.129 100.031 292.654 99.4838 293.041 98.7972C293.427 98.0998 293.62 97.322 293.62 96.4636C293.62 95.6053 293.427 94.8328 293.041 94.1462C292.654 93.4488 292.129 92.9016 291.464 92.5047C290.798 92.097 290.047 91.8931 289.21 91.8931C288.61 91.8931 288.068 92.0004 287.585 92.215C287.102 92.4295 286.705 92.73 286.394 93.1162V92.0862H284.415V104.06ZM288.953 99.103C288.492 99.103 288.073 98.9903 287.698 98.765C287.333 98.5397 287.043 98.2286 286.829 97.8316C286.625 97.4346 286.523 96.9786 286.523 96.4636C286.523 95.9487 286.625 95.4927 286.829 95.0957C287.043 94.6987 287.333 94.3876 287.698 94.1623C288.073 93.937 288.492 93.8243 288.953 93.8243C289.436 93.8243 289.86 93.9423 290.224 94.1784C290.6 94.4037 290.895 94.7148 291.109 95.1118C291.324 95.5088 291.431 95.9594 291.431 96.4636C291.431 96.9679 291.324 97.4239 291.109 97.8316C290.895 98.2286 290.6 98.5397 290.224 98.765C289.86 98.9903 289.436 99.103 288.953 99.103ZM299.379 101.034C300.27 101.034 301.048 100.836 301.713 100.439C302.389 100.031 302.861 99.516 303.129 98.8938L301.423 98.0569C301.23 98.3895 300.962 98.6631 300.619 98.8777C300.286 99.0815 299.878 99.1834 299.396 99.1834C298.763 99.1834 298.231 98.9903 297.802 98.6041C297.373 98.2178 297.126 97.7028 297.062 97.0591H303.371C303.414 96.9411 303.44 96.807 303.451 96.6568C303.473 96.4958 303.483 96.3349 303.483 96.174C303.483 95.3907 303.317 94.6773 302.984 94.0335C302.652 93.3898 302.169 92.8748 301.536 92.4886C300.903 92.0916 300.131 91.8931 299.219 91.8931C298.403 91.8931 297.663 92.0916 296.998 92.4886C296.343 92.8855 295.823 93.4273 295.437 94.114C295.061 94.7899 294.873 95.5678 294.873 96.4476C294.873 97.2951 295.061 98.0676 295.437 98.765C295.812 99.4624 296.338 100.015 297.014 100.423C297.69 100.83 298.478 101.034 299.379 101.034ZM299.219 93.6312C299.776 93.6312 300.238 93.8029 300.603 94.1462C300.978 94.4788 301.187 94.9133 301.23 95.4498H297.11C297.228 94.8704 297.475 94.4251 297.851 94.114C298.237 93.7921 298.693 93.6312 299.219 93.6312ZM305.081 100.841H307.19V95.9647C307.19 95.2996 307.372 94.7846 307.737 94.4198C308.112 94.0443 308.595 93.8565 309.185 93.8565H309.942V91.9897H309.427C308.89 91.9897 308.418 92.0862 308.01 92.2793C307.603 92.4725 307.286 92.8212 307.061 93.3254V92.0862H305.081V100.841ZM313.74 100.841H315.607L319.051 92.0862H316.75L314.674 97.7994L312.598 92.0862H310.296L313.74 100.841ZM320.216 91.1045H322.324V88.8514H320.216V91.1045ZM320.216 100.841H322.324V92.0862H320.216V100.841ZM327.602 101.034C328.268 101.034 328.847 100.922 329.34 100.696C329.834 100.471 330.22 100.16 330.499 99.7628C330.778 99.3551 330.918 98.8884 330.918 98.3627C330.918 97.7511 330.725 97.2254 330.338 96.7855C329.952 96.3456 329.394 96.0238 328.665 95.8199L327.264 95.4015C326.964 95.3156 326.717 95.203 326.524 95.0635C326.331 94.924 326.234 94.7309 326.234 94.4841C326.234 94.2267 326.336 94.0174 326.54 93.8565C326.744 93.6956 327.023 93.6151 327.377 93.6151C327.817 93.6151 328.214 93.7331 328.568 93.9692C328.933 94.2052 329.185 94.5217 329.324 94.9187L330.934 94.1623C330.666 93.4542 330.215 92.9016 329.582 92.5047C328.949 92.097 328.219 91.8931 327.393 91.8931C326.76 91.8931 326.197 92.0058 325.703 92.2311C325.221 92.4564 324.84 92.7729 324.561 93.1806C324.292 93.5776 324.158 94.0443 324.158 94.5807C324.158 95.1815 324.346 95.7019 324.722 96.1418C325.108 96.5817 325.671 96.9089 326.411 97.1235L327.844 97.5258C328.123 97.6009 328.359 97.7136 328.552 97.8638C328.756 98.0033 328.858 98.1964 328.858 98.4431C328.858 98.7328 328.74 98.9635 328.504 99.1352C328.278 99.2961 327.978 99.3766 327.602 99.3766C327.109 99.3766 326.664 99.2371 326.267 98.9581C325.87 98.6792 325.553 98.2929 325.317 97.7994L323.74 98.5558C323.997 99.3068 324.47 99.9076 325.156 100.358C325.854 100.809 326.669 101.034 327.602 101.034ZM332.538 91.1045H334.646V88.8514H332.538V91.1045ZM332.538 100.841H334.646V92.0862H332.538V100.841ZM340.873 101.034C341.721 101.034 342.494 100.841 343.191 100.455C343.888 100.058 344.446 99.516 344.865 98.8294C345.283 98.132 345.492 97.3434 345.492 96.4636C345.492 95.5839 345.283 94.8007 344.865 94.114C344.457 93.4273 343.904 92.8855 343.207 92.4886C342.51 92.0916 341.732 91.8931 340.873 91.8931C340.004 91.8931 339.221 92.0916 338.524 92.4886C337.826 92.8855 337.269 93.4273 336.85 94.114C336.442 94.8007 336.239 95.5839 336.239 96.4636C336.239 97.3434 336.442 98.1266 336.85 98.8133C337.269 99.4999 337.826 100.042 338.524 100.439C339.232 100.836 340.015 101.034 340.873 101.034ZM340.873 99.103C340.401 99.103 339.978 98.9903 339.602 98.765C339.237 98.5397 338.948 98.2286 338.733 97.8316C338.529 97.4239 338.427 96.9679 338.427 96.4636C338.427 95.9594 338.529 95.5088 338.733 95.1118C338.948 94.7148 339.237 94.4037 339.602 94.1784C339.978 93.9423 340.401 93.8243 340.873 93.8243C341.346 93.8243 341.759 93.9423 342.113 94.1784C342.477 94.4037 342.762 94.7148 342.966 95.1118C343.18 95.5088 343.287 95.9594 343.287 96.4636C343.287 96.9679 343.18 97.4239 342.966 97.8316C342.762 98.2286 342.477 98.5397 342.113 98.765C341.759 98.9903 341.346 99.103 340.873 99.103ZM347.091 100.841H349.199V95.7073C349.199 95.1386 349.36 94.6826 349.682 94.3393C350.015 93.996 350.444 93.8243 350.97 93.8243C351.495 93.8243 351.919 93.996 352.241 94.3393C352.574 94.6719 352.74 95.1279 352.74 95.7073V100.841H354.848V95.2084C354.848 94.5539 354.709 93.9799 354.43 93.4864C354.151 92.9821 353.759 92.5905 353.255 92.3115C352.761 92.0326 352.193 91.8931 351.549 91.8931C351.002 91.8931 350.508 92.0004 350.068 92.215C349.639 92.4295 349.307 92.7461 349.071 93.1645V92.0862H347.091V100.841Z" fill="#323232"/>
<defs>
<filter id="filter0_d_1_365" x="0.321798" y="0.426357" width="467.824" height="416.824" filterUnits="userSpaceOnUse" color-interpolation-filters="sRGB">
<feFlood flood-opacity="0" result="BackgroundImageFix"/>
<feColorMatrix in="SourceAlpha" type="matrix" values="0 0 0 0 0 0 0 0 0 0 0 0 0 0 0 0 0 0 127 0" result="hardAlpha"/>
<feOffset dx="-24.2662" dy="41.8383"/>
<feGaussianBlur stdDeviation="50.206"/>
<feComposite in2="hardAlpha" operator="out"/>
<feColorMatrix type="matrix" values="0 0 0 0 0 0 0 0 0 0 0 0 0 0 0 0 0 0 0.1 0"/>
<feBlend mode="normal" in2="BackgroundImageFix" result="effect1_dropShadow_1_365"/>
<feBlend mode="normal" in="SourceGraphic" in2="effect1_dropShadow_1_365" result="shape"/>
</filter>
<filter id="filter1_d_1_365" x="188.666" y="188.764" width="36.8177" height="36.8177" filterUnits="userSpaceOnUse" color-interpolation-filters="sRGB">
<feFlood flood-opacity="0" result="BackgroundImageFix"/>
<feColorMatrix in="SourceAlpha" type="matrix" values="0 0 0 0 0 0 0 0 0 0 0 0 0 0 0 0 0 0 127 0" result="hardAlpha"/>
<feOffset dy="8.36767"/>
<feGaussianBlur stdDeviation="4.18383"/>
<feComposite in2="hardAlpha" operator="out"/>
<feColorMatrix type="matrix" values="0 0 0 0 0 0 0 0 0 0 0 0 0 0 0 0 0 0 0.08 0"/>
<feBlend mode="normal" in2="BackgroundImageFix" result="effect1_dropShadow_1_365"/>
<feBlend mode="normal" in="SourceGraphic" in2="effect1_dropShadow_1_365" result="shape"/>
</filter>
<filter id="filter2_d_1_365" x="307.455" y="157.86" width="36.8177" height="36.8177" filterUnits="userSpaceOnUse" color-interpolation-filters="sRGB">
<feFlood flood-opacity="0" result="BackgroundImageFix"/>
<feColorMatrix in="SourceAlpha" type="matrix" values="0 0 0 0 0 0 0 0 0 0 0 0 0 0 0 0 0 0 127 0" result="hardAlpha"/>
<feOffset dy="8.36767"/>
<feGaussianBlur stdDeviation="4.18383"/>
<feComposite in2="hardAlpha" operator="out"/>
<feColorMatrix type="matrix" values="0 0 0 0 0 0 0 0 0 0 0 0 0 0 0 0 0 0 0.08 0"/>
<feBlend mode="normal" in2="BackgroundImageFix" result="effect1_dropShadow_1_365"/>
<feBlend mode="normal" in="SourceGraphic" in2="effect1_dropShadow_1_365" result="shape"/>
</filter>
</defs>
</svg>
