<svg width="407" height="398" viewBox="0 0 407 398" fill="none" xmlns="http://www.w3.org/2000/svg">
<g filter="url(#filter0_d_1_388)">
<rect x="76" y="59" width="251" height="198" rx="5" fill="white"/>
</g>
<path d="M95.78 235V228.4H94.37V227.55H96.77V235H95.78ZM102.008 235V233.28H98.3484V232.47L101.988 227.55H102.928V232.47H103.898V233.28H102.928V235H102.008ZM99.0884 232.82L98.9484 232.47H102.008V228.37L102.298 228.45L99.0884 232.82ZM105.825 235L111.905 227.55H113.015L106.935 235H105.825ZM106.945 231.33C106.579 231.33 106.249 231.243 105.955 231.07C105.662 230.89 105.425 230.653 105.245 230.36C105.072 230.067 104.985 229.74 104.985 229.38C104.985 229.02 105.072 228.693 105.245 228.4C105.425 228.1 105.662 227.863 105.955 227.69C106.249 227.517 106.579 227.43 106.945 227.43C107.305 227.43 107.632 227.517 107.925 227.69C108.219 227.863 108.452 228.1 108.625 228.4C108.799 228.693 108.885 229.02 108.885 229.38C108.885 229.74 108.799 230.067 108.625 230.36C108.452 230.653 108.219 230.89 107.925 231.07C107.632 231.243 107.305 231.33 106.945 231.33ZM106.935 230.51C107.162 230.51 107.355 230.457 107.515 230.35C107.675 230.243 107.802 230.103 107.895 229.93C107.989 229.757 108.035 229.573 108.035 229.38C108.035 229.18 107.989 228.997 107.895 228.83C107.802 228.657 107.675 228.517 107.515 228.41C107.355 228.297 107.162 228.24 106.935 228.24C106.722 228.24 106.532 228.297 106.365 228.41C106.199 228.517 106.069 228.657 105.975 228.83C105.882 229.003 105.835 229.187 105.835 229.38C105.835 229.567 105.882 229.75 105.975 229.93C106.069 230.103 106.199 230.243 106.365 230.35C106.532 230.457 106.722 230.51 106.935 230.51ZM111.835 235.12C111.469 235.12 111.139 235.033 110.845 234.86C110.552 234.68 110.315 234.443 110.135 234.15C109.962 233.857 109.875 233.53 109.875 233.17C109.875 232.81 109.962 232.483 110.135 232.19C110.315 231.89 110.552 231.653 110.845 231.48C111.139 231.307 111.469 231.22 111.835 231.22C112.195 231.22 112.522 231.307 112.815 231.48C113.109 231.653 113.342 231.89 113.515 232.19C113.689 232.483 113.775 232.81 113.775 233.17C113.775 233.53 113.689 233.857 113.515 234.15C113.342 234.443 113.109 234.68 112.815 234.86C112.522 235.033 112.195 235.12 111.835 235.12ZM111.835 234.3C112.055 234.3 112.245 234.247 112.405 234.14C112.572 234.033 112.699 233.893 112.785 233.72C112.879 233.547 112.925 233.363 112.925 233.17C112.925 232.97 112.879 232.787 112.785 232.62C112.699 232.447 112.572 232.307 112.405 232.2C112.245 232.087 112.055 232.03 111.835 232.03C111.622 232.03 111.429 232.087 111.255 232.2C111.089 232.307 110.959 232.447 110.865 232.62C110.772 232.793 110.725 232.977 110.725 233.17C110.725 233.357 110.772 233.54 110.865 233.72C110.959 233.893 111.089 234.033 111.255 234.14C111.429 234.247 111.622 234.3 111.835 234.3Z" fill="#131126"/>
<path d="M292.008 235.12C291.535 235.12 291.102 235.033 290.708 234.86C290.315 234.68 289.982 234.437 289.708 234.13C289.435 233.823 289.238 233.48 289.118 233.1L289.968 232.75C290.148 233.23 290.415 233.6 290.768 233.86C291.128 234.113 291.548 234.24 292.028 234.24C292.322 234.24 292.578 234.193 292.798 234.1C293.018 234.007 293.188 233.877 293.308 233.71C293.435 233.537 293.498 233.337 293.498 233.11C293.498 232.797 293.408 232.55 293.228 232.37C293.055 232.183 292.798 232.043 292.458 231.95L291.088 231.53C290.548 231.363 290.135 231.1 289.848 230.74C289.562 230.38 289.418 229.967 289.418 229.5C289.418 229.093 289.515 228.737 289.708 228.43C289.908 228.117 290.182 227.873 290.528 227.7C290.882 227.52 291.282 227.43 291.728 227.43C292.175 227.43 292.578 227.51 292.938 227.67C293.305 227.83 293.615 228.047 293.868 228.32C294.122 228.587 294.308 228.893 294.428 229.24L293.588 229.59C293.428 229.17 293.188 228.853 292.868 228.64C292.548 228.42 292.172 228.31 291.738 228.31C291.472 228.31 291.235 228.357 291.028 228.45C290.828 228.537 290.672 228.667 290.558 228.84C290.452 229.007 290.398 229.207 290.398 229.44C290.398 229.713 290.485 229.957 290.658 230.17C290.832 230.383 291.095 230.547 291.448 230.66L292.698 231.03C293.285 231.21 293.728 231.467 294.028 231.8C294.328 232.133 294.478 232.547 294.478 233.04C294.478 233.447 294.372 233.807 294.158 234.12C293.952 234.433 293.662 234.68 293.288 234.86C292.922 235.033 292.495 235.12 292.008 235.12ZM291.558 236V226.55H292.308V236H291.558ZM298.183 235.12C297.797 235.12 297.433 235.053 297.093 234.92C296.753 234.78 296.457 234.583 296.203 234.33C295.957 234.07 295.777 233.767 295.663 233.42L296.463 233.08C296.603 233.447 296.83 233.733 297.143 233.94C297.463 234.14 297.81 234.24 298.183 234.24C298.49 234.24 298.76 234.173 298.993 234.04C299.233 233.9 299.42 233.71 299.553 233.47C299.687 233.223 299.753 232.95 299.753 232.65C299.753 232.337 299.683 232.06 299.543 231.82C299.41 231.58 299.227 231.393 298.993 231.26C298.76 231.12 298.493 231.05 298.193 231.05C297.887 231.05 297.607 231.12 297.353 231.26C297.1 231.4 296.917 231.577 296.803 231.79L296.013 231.62L296.583 227.55H300.443V228.4H296.953L297.333 228.02L296.893 231.18L296.553 230.98C296.773 230.7 297.03 230.5 297.323 230.38C297.623 230.253 297.947 230.19 298.293 230.19C298.78 230.19 299.207 230.3 299.573 230.52C299.94 230.74 300.227 231.033 300.433 231.4C300.64 231.767 300.743 232.183 300.743 232.65C300.743 233.117 300.63 233.537 300.403 233.91C300.183 234.283 299.88 234.58 299.493 234.8C299.113 235.013 298.677 235.12 298.183 235.12ZM302.275 235V227.55H303.175L305.965 231.52H305.505L308.275 227.55H309.175V235H308.185V228.79L308.535 228.9L305.765 232.8H305.685L302.945 228.9L303.255 228.79V235H302.275Z" fill="#131126"/>
<path d="M101.397 193.263C100.375 193.263 99.4271 193.073 98.5517 192.694C97.6764 192.3 96.9324 191.767 96.3196 191.096C95.7069 190.425 95.2546 189.652 94.9629 188.777L97.1512 187.857C97.5451 188.864 98.1214 189.637 98.88 190.177C99.6386 190.717 100.514 190.987 101.506 190.987C102.09 190.987 102.6 190.899 103.038 190.724C103.475 190.534 103.811 190.272 104.044 189.936C104.292 189.601 104.416 189.214 104.416 188.777C104.416 188.178 104.249 187.704 103.913 187.354C103.578 187.004 103.082 186.727 102.425 186.523L99.3614 185.56C98.136 185.18 97.2023 184.604 96.5604 183.831C95.9184 183.043 95.5975 182.124 95.5975 181.074C95.5975 180.154 95.8236 179.352 96.2759 178.666C96.7281 177.966 97.3482 177.419 98.136 177.025C98.9383 176.631 99.8501 176.434 100.871 176.434C101.849 176.434 102.739 176.609 103.541 176.96C104.344 177.295 105.029 177.762 105.598 178.36C106.182 178.958 106.605 179.651 106.867 180.439L104.723 181.38C104.402 180.519 103.899 179.855 103.213 179.389C102.542 178.922 101.761 178.688 100.871 178.688C100.332 178.688 99.8574 178.783 99.449 178.973C99.0405 179.148 98.7195 179.41 98.4861 179.761C98.2673 180.096 98.1578 180.49 98.1578 180.942C98.1578 181.467 98.3256 181.934 98.6612 182.343C98.9967 182.751 99.5073 183.058 100.193 183.262L103.038 184.159C104.336 184.553 105.314 185.122 105.97 185.866C106.627 186.595 106.955 187.507 106.955 188.601C106.955 189.506 106.714 190.308 106.233 191.009C105.766 191.709 105.117 192.263 104.285 192.672C103.454 193.066 102.491 193.263 101.397 193.263ZM100.39 195.188V174.509H102.141V195.188H100.39ZM115.062 193.263C113.924 193.263 112.925 193.044 112.064 192.606C111.218 192.154 110.561 191.556 110.094 190.812C109.627 190.053 109.394 189.214 109.394 188.295C109.394 187.245 109.679 186.34 110.248 185.582C110.831 184.808 111.648 184.247 112.698 183.897L112.589 184.553C111.816 184.261 111.203 183.773 110.751 183.087C110.313 182.387 110.094 181.621 110.094 180.789C110.094 179.958 110.306 179.213 110.729 178.557C111.167 177.9 111.757 177.383 112.502 177.003C113.26 176.624 114.114 176.434 115.062 176.434C116.025 176.434 116.878 176.624 117.622 177.003C118.366 177.368 118.95 177.879 119.373 178.535C119.811 179.192 120.029 179.943 120.029 180.789C120.029 181.65 119.803 182.423 119.351 183.109C118.913 183.78 118.315 184.261 117.557 184.553L117.447 183.897C118.498 184.261 119.315 184.823 119.898 185.582C120.482 186.34 120.773 187.245 120.773 188.295C120.773 189.214 120.533 190.053 120.051 190.812C119.584 191.556 118.921 192.154 118.06 192.606C117.199 193.044 116.2 193.263 115.062 193.263ZM115.062 191.074C115.689 191.074 116.236 190.958 116.703 190.724C117.17 190.476 117.535 190.141 117.797 189.717C118.06 189.294 118.191 188.798 118.191 188.229C118.191 187.66 118.06 187.164 117.797 186.741C117.535 186.318 117.17 185.99 116.703 185.757C116.236 185.523 115.689 185.406 115.062 185.406C114.449 185.406 113.909 185.523 113.442 185.757C112.976 185.99 112.611 186.318 112.348 186.741C112.086 187.164 111.954 187.66 111.954 188.229C111.954 188.798 112.086 189.294 112.348 189.717C112.611 190.141 112.976 190.476 113.442 190.724C113.909 190.958 114.449 191.074 115.062 191.074ZM115.062 183.218C115.529 183.218 115.937 183.123 116.287 182.934C116.652 182.729 116.937 182.452 117.141 182.102C117.345 181.752 117.447 181.358 117.447 180.92C117.447 180.468 117.345 180.074 117.141 179.739C116.937 179.389 116.652 179.119 116.287 178.929C115.937 178.725 115.529 178.623 115.062 178.623C114.61 178.623 114.201 178.725 113.836 178.929C113.472 179.119 113.187 179.389 112.983 179.739C112.779 180.074 112.677 180.468 112.677 180.92C112.677 181.358 112.779 181.752 112.983 182.102C113.187 182.452 113.472 182.729 113.836 182.934C114.201 183.123 114.61 183.218 115.062 183.218ZM124.403 193L129.983 185.778L130.421 186.063C130.217 186.282 129.991 186.457 129.742 186.588C129.509 186.719 129.254 186.814 128.977 186.873C128.714 186.931 128.429 186.96 128.123 186.96C127.146 186.96 126.27 186.741 125.497 186.304C124.724 185.851 124.111 185.239 123.659 184.465C123.221 183.678 123.002 182.788 123.002 181.796C123.002 180.76 123.243 179.841 123.725 179.038C124.206 178.236 124.863 177.601 125.694 177.135C126.526 176.668 127.474 176.434 128.539 176.434C129.618 176.434 130.567 176.668 131.384 177.135C132.215 177.601 132.865 178.243 133.331 179.06C133.813 179.863 134.054 180.782 134.054 181.818C134.054 182.372 133.995 182.919 133.878 183.459C133.762 183.999 133.557 184.56 133.266 185.144C132.974 185.713 132.565 186.34 132.04 187.026L127.489 193H124.403ZM128.539 184.794C129.108 184.794 129.611 184.662 130.049 184.4C130.487 184.137 130.837 183.78 131.099 183.328C131.362 182.875 131.493 182.357 131.493 181.774C131.493 181.176 131.362 180.651 131.099 180.198C130.837 179.731 130.479 179.374 130.027 179.126C129.589 178.863 129.093 178.732 128.539 178.732C127.985 178.732 127.481 178.863 127.029 179.126C126.591 179.374 126.241 179.731 125.979 180.198C125.716 180.651 125.585 181.176 125.585 181.774C125.585 182.357 125.709 182.875 125.957 183.328C126.219 183.78 126.577 184.137 127.029 184.4C127.481 184.662 127.985 184.794 128.539 184.794ZM136.758 193L143.717 178.885H135.883V176.697H146.409V178.885L139.559 193H136.758ZM148.116 196.217V195.013C148.597 194.897 148.969 194.67 149.232 194.335C149.495 194.014 149.655 193.569 149.713 193H148.554V190.155H151.07V192.015C151.07 193.182 150.822 194.123 150.326 194.838C149.83 195.553 149.093 196.013 148.116 196.217ZM159.761 193.263C158.9 193.263 158.09 193.109 157.332 192.803C156.573 192.482 155.916 192.037 155.362 191.468C154.808 190.899 154.414 190.214 154.18 189.411L156.347 188.58C156.624 189.353 157.076 189.944 157.704 190.352C158.331 190.761 159.017 190.965 159.761 190.965C160.373 190.965 160.913 190.826 161.38 190.549C161.847 190.272 162.212 189.893 162.474 189.411C162.751 188.93 162.89 188.383 162.89 187.77C162.89 187.143 162.751 186.595 162.474 186.129C162.212 185.647 161.847 185.275 161.38 185.013C160.913 184.735 160.373 184.597 159.761 184.597C159.148 184.597 158.586 184.735 158.076 185.013C157.565 185.29 157.193 185.662 156.96 186.129L154.881 185.669L156.15 176.697H164.838V178.885H157.156L158.141 177.813L157.2 184.684L156.391 184.137C156.828 183.525 157.361 183.08 157.988 182.802C158.615 182.525 159.33 182.387 160.133 182.387C161.198 182.387 162.124 182.627 162.912 183.109C163.714 183.576 164.334 184.217 164.772 185.034C165.224 185.837 165.45 186.749 165.45 187.77C165.45 188.806 165.202 189.739 164.706 190.571C164.21 191.403 163.532 192.059 162.671 192.54C161.825 193.022 160.855 193.263 159.761 193.263ZM175.303 193V189.324H167.534V187.179L175.193 176.697H177.754V187.179H180.008V189.324H177.754V193H175.303ZM169.438 188.12L169.022 187.179H175.303V178.754L176.003 178.973L169.438 188.12ZM187.24 193.263C186.365 193.263 185.54 193.102 184.767 192.781C184.008 192.46 183.352 192.008 182.798 191.424C182.258 190.841 181.871 190.155 181.638 189.367L183.826 188.536C184.118 189.309 184.563 189.907 185.161 190.33C185.759 190.753 186.452 190.965 187.24 190.965C187.882 190.965 188.436 190.841 188.903 190.593C189.384 190.345 189.757 189.995 190.019 189.542C190.296 189.09 190.435 188.543 190.435 187.901C190.435 187.274 190.296 186.734 190.019 186.282C189.757 185.83 189.384 185.487 188.903 185.253C188.436 185.02 187.882 184.903 187.24 184.903C186.977 184.903 186.707 184.925 186.43 184.969C186.168 185.013 185.934 185.071 185.73 185.144L185.161 183.94L189.45 178.885H182.513V176.697H192.339V178.776L188.137 183.809L188.071 182.977C189.049 182.992 189.91 183.211 190.654 183.634C191.398 184.042 191.974 184.611 192.383 185.341C192.806 186.056 193.017 186.887 193.017 187.836C193.017 188.857 192.769 189.783 192.273 190.615C191.777 191.432 191.091 192.081 190.216 192.562C189.355 193.029 188.363 193.263 187.24 193.263Z" fill="#131126"/>
<rect x="94" y="215" width="215" height="5" rx="2.5" fill="#FAE0E1"/>
<rect x="94" y="215" width="60" height="5" rx="2.5" fill="#3C3679"/>
<path d="M103.632 100.216C102.684 100.216 101.802 100.042 100.986 99.694C100.182 99.346 99.48 98.866 98.88 98.254C98.292 97.63 97.83 96.898 97.494 96.058C97.158 95.218 96.99 94.294 96.99 93.286C96.99 92.29 97.152 91.372 97.476 90.532C97.812 89.68 98.28 88.948 98.88 88.336C99.48 87.712 100.182 87.232 100.986 86.896C101.79 86.548 102.672 86.374 103.632 86.374C104.58 86.374 105.426 86.536 106.17 86.86C106.926 87.184 107.562 87.61 108.078 88.138C108.594 88.654 108.966 89.218 109.194 89.83L107.286 90.73C106.998 90.01 106.536 89.428 105.9 88.984C105.276 88.528 104.52 88.3 103.632 88.3C102.744 88.3 101.958 88.51 101.274 88.93C100.59 89.35 100.056 89.932 99.672 90.676C99.3 91.42 99.114 92.29 99.114 93.286C99.114 94.282 99.3 95.158 99.672 95.914C100.056 96.658 100.59 97.24 101.274 97.66C101.958 98.068 102.744 98.272 103.632 98.272C104.52 98.272 105.276 98.05 105.9 97.606C106.536 97.162 106.998 96.58 107.286 95.86L109.194 96.76C108.966 97.36 108.594 97.924 108.078 98.452C107.562 98.98 106.926 99.406 106.17 99.73C105.426 100.054 104.58 100.216 103.632 100.216ZM111.18 100V86.374H113.214V100H111.18ZM115.592 100V90.262H117.626V100H115.592ZM115.592 88.93V86.59H117.626V88.93H115.592ZM124.576 100.216C123.604 100.216 122.74 99.994 121.984 99.55C121.24 99.094 120.658 98.482 120.238 97.714C119.818 96.934 119.608 96.064 119.608 95.104C119.608 94.12 119.818 93.25 120.238 92.494C120.67 91.738 121.246 91.144 121.966 90.712C122.686 90.268 123.502 90.046 124.414 90.046C125.146 90.046 125.8 90.172 126.376 90.424C126.952 90.676 127.438 91.024 127.834 91.468C128.23 91.9 128.53 92.398 128.734 92.962C128.95 93.526 129.058 94.126 129.058 94.762C129.058 94.918 129.052 95.08 129.04 95.248C129.028 95.416 129.004 95.572 128.968 95.716H121.21V94.096H127.816L126.844 94.834C126.964 94.246 126.922 93.724 126.718 93.268C126.526 92.8 126.226 92.434 125.818 92.17C125.422 91.894 124.954 91.756 124.414 91.756C123.874 91.756 123.394 91.894 122.974 92.17C122.554 92.434 122.23 92.818 122.002 93.322C121.774 93.814 121.684 94.414 121.732 95.122C121.672 95.782 121.762 96.358 122.002 96.85C122.254 97.342 122.602 97.726 123.046 98.002C123.502 98.278 124.018 98.416 124.594 98.416C125.182 98.416 125.68 98.284 126.088 98.02C126.508 97.756 126.838 97.414 127.078 96.994L128.734 97.804C128.542 98.26 128.242 98.674 127.834 99.046C127.438 99.406 126.958 99.694 126.394 99.91C125.842 100.114 125.236 100.216 124.576 100.216ZM131.043 100V90.262H132.987V92.17L132.753 91.918C132.993 91.306 133.377 90.844 133.905 90.532C134.433 90.208 135.045 90.046 135.741 90.046C136.461 90.046 137.097 90.202 137.649 90.514C138.201 90.826 138.633 91.258 138.945 91.81C139.257 92.362 139.413 92.998 139.413 93.718V100H137.397V94.258C137.397 93.766 137.307 93.352 137.127 93.016C136.947 92.668 136.689 92.404 136.353 92.224C136.029 92.032 135.657 91.936 135.237 91.936C134.817 91.936 134.439 92.032 134.103 92.224C133.779 92.404 133.527 92.668 133.347 93.016C133.167 93.364 133.077 93.778 133.077 94.258V100H131.043ZM145.802 100.108C144.782 100.108 143.99 99.82 143.426 99.244C142.862 98.668 142.58 97.858 142.58 96.814V92.098H140.87V90.262H141.14C141.596 90.262 141.95 90.13 142.202 89.866C142.454 89.602 142.58 89.242 142.58 88.786V88.03H144.614V90.262H146.828V92.098H144.614V96.724C144.614 97.06 144.668 97.348 144.776 97.588C144.884 97.816 145.058 97.996 145.298 98.128C145.538 98.248 145.85 98.308 146.234 98.308C146.33 98.308 146.438 98.302 146.558 98.29C146.678 98.278 146.792 98.266 146.9 98.254V100C146.732 100.024 146.546 100.048 146.342 100.072C146.138 100.096 145.958 100.108 145.802 100.108ZM152.485 100.216C151.489 100.216 150.613 99.97 149.857 99.478C149.113 98.986 148.591 98.326 148.291 97.498L149.857 96.76C150.121 97.312 150.481 97.75 150.937 98.074C151.405 98.398 151.921 98.56 152.485 98.56C152.965 98.56 153.355 98.452 153.655 98.236C153.955 98.02 154.105 97.726 154.105 97.354C154.105 97.114 154.039 96.922 153.907 96.778C153.775 96.622 153.607 96.496 153.403 96.4C153.211 96.304 153.013 96.232 152.809 96.184L151.279 95.752C150.439 95.512 149.809 95.152 149.389 94.672C148.981 94.18 148.777 93.61 148.777 92.962C148.777 92.374 148.927 91.864 149.227 91.432C149.527 90.988 149.941 90.646 150.469 90.406C150.997 90.166 151.591 90.046 152.251 90.046C153.139 90.046 153.931 90.268 154.627 90.712C155.323 91.144 155.815 91.75 156.103 92.53L154.537 93.268C154.345 92.8 154.039 92.428 153.619 92.152C153.211 91.876 152.749 91.738 152.233 91.738C151.789 91.738 151.435 91.846 151.171 92.062C150.907 92.266 150.775 92.536 150.775 92.872C150.775 93.1 150.835 93.292 150.955 93.448C151.075 93.592 151.231 93.712 151.423 93.808C151.615 93.892 151.813 93.964 152.017 94.024L153.601 94.492C154.405 94.72 155.023 95.08 155.455 95.572C155.887 96.052 156.103 96.628 156.103 97.3C156.103 97.876 155.947 98.386 155.635 98.83C155.335 99.262 154.915 99.604 154.375 99.856C153.835 100.096 153.205 100.216 152.485 100.216ZM162.341 100V92.098H160.541V90.262H162.341V89.758C162.341 89.026 162.491 88.414 162.791 87.922C163.091 87.418 163.505 87.034 164.033 86.77C164.573 86.506 165.191 86.374 165.887 86.374C166.019 86.374 166.169 86.386 166.337 86.41C166.505 86.422 166.643 86.44 166.751 86.464V88.228C166.655 88.204 166.547 88.192 166.427 88.192C166.307 88.18 166.211 88.174 166.139 88.174C165.599 88.174 165.167 88.3 164.843 88.552C164.519 88.792 164.357 89.194 164.357 89.758V90.262H169.019V92.098H164.357V100H162.341ZM168.065 100V90.262H170.081V100H168.065ZM172.229 100V86.374H174.263V100H172.229ZM181.213 100.216C180.241 100.216 179.377 99.994 178.621 99.55C177.877 99.094 177.295 98.482 176.875 97.714C176.455 96.934 176.245 96.064 176.245 95.104C176.245 94.12 176.455 93.25 176.875 92.494C177.307 91.738 177.883 91.144 178.603 90.712C179.323 90.268 180.139 90.046 181.051 90.046C181.783 90.046 182.437 90.172 183.013 90.424C183.589 90.676 184.075 91.024 184.471 91.468C184.867 91.9 185.167 92.398 185.371 92.962C185.587 93.526 185.695 94.126 185.695 94.762C185.695 94.918 185.689 95.08 185.677 95.248C185.665 95.416 185.641 95.572 185.605 95.716H177.847V94.096H184.453L183.481 94.834C183.601 94.246 183.559 93.724 183.355 93.268C183.163 92.8 182.863 92.434 182.455 92.17C182.059 91.894 181.591 91.756 181.051 91.756C180.511 91.756 180.031 91.894 179.611 92.17C179.191 92.434 178.867 92.818 178.639 93.322C178.411 93.814 178.321 94.414 178.369 95.122C178.309 95.782 178.399 96.358 178.639 96.85C178.891 97.342 179.239 97.726 179.683 98.002C180.139 98.278 180.655 98.416 181.231 98.416C181.819 98.416 182.317 98.284 182.725 98.02C183.145 97.756 183.475 97.414 183.715 96.994L185.371 97.804C185.179 98.26 184.879 98.674 184.471 99.046C184.075 99.406 183.595 99.694 183.031 99.91C182.479 100.114 181.873 100.216 181.213 100.216ZM194.427 100.216C193.431 100.216 192.555 99.97 191.799 99.478C191.055 98.986 190.533 98.326 190.233 97.498L191.799 96.76C192.063 97.312 192.423 97.75 192.879 98.074C193.347 98.398 193.863 98.56 194.427 98.56C194.907 98.56 195.297 98.452 195.597 98.236C195.897 98.02 196.047 97.726 196.047 97.354C196.047 97.114 195.981 96.922 195.849 96.778C195.717 96.622 195.549 96.496 195.345 96.4C195.153 96.304 194.955 96.232 194.751 96.184L193.221 95.752C192.381 95.512 191.751 95.152 191.331 94.672C190.923 94.18 190.719 93.61 190.719 92.962C190.719 92.374 190.869 91.864 191.169 91.432C191.469 90.988 191.883 90.646 192.411 90.406C192.939 90.166 193.533 90.046 194.193 90.046C195.081 90.046 195.873 90.268 196.569 90.712C197.265 91.144 197.757 91.75 198.045 92.53L196.479 93.268C196.287 92.8 195.981 92.428 195.561 92.152C195.153 91.876 194.691 91.738 194.175 91.738C193.731 91.738 193.377 91.846 193.113 92.062C192.849 92.266 192.717 92.536 192.717 92.872C192.717 93.1 192.777 93.292 192.897 93.448C193.017 93.592 193.173 93.712 193.365 93.808C193.557 93.892 193.755 93.964 193.959 94.024L195.543 94.492C196.347 94.72 196.965 95.08 197.397 95.572C197.829 96.052 198.045 96.628 198.045 97.3C198.045 97.876 197.889 98.386 197.577 98.83C197.277 99.262 196.857 99.604 196.317 99.856C195.777 100.096 195.147 100.216 194.427 100.216ZM204.664 100.216C203.692 100.216 202.828 99.994 202.072 99.55C201.328 99.094 200.734 98.482 200.29 97.714C199.858 96.946 199.642 96.076 199.642 95.104C199.642 94.144 199.858 93.28 200.29 92.512C200.722 91.744 201.316 91.144 202.072 90.712C202.828 90.268 203.692 90.046 204.664 90.046C205.324 90.046 205.942 90.166 206.518 90.406C207.094 90.634 207.592 90.952 208.012 91.36C208.444 91.768 208.762 92.242 208.966 92.782L207.184 93.61C206.98 93.106 206.65 92.704 206.194 92.404C205.75 92.092 205.24 91.936 204.664 91.936C204.112 91.936 203.614 92.074 203.17 92.35C202.738 92.614 202.396 92.992 202.144 93.484C201.892 93.964 201.766 94.51 201.766 95.122C201.766 95.734 201.892 96.286 202.144 96.778C202.396 97.258 202.738 97.636 203.17 97.912C203.614 98.188 204.112 98.326 204.664 98.326C205.252 98.326 205.762 98.176 206.194 97.876C206.638 97.564 206.968 97.15 207.184 96.634L208.966 97.48C208.774 97.996 208.462 98.464 208.03 98.884C207.61 99.292 207.112 99.616 206.536 99.856C205.96 100.096 205.336 100.216 204.664 100.216ZM213.782 100.216C213.122 100.216 212.54 100.102 212.036 99.874C211.544 99.634 211.16 99.31 210.884 98.902C210.608 98.482 210.47 97.99 210.47 97.426C210.47 96.898 210.584 96.424 210.812 96.004C211.052 95.584 211.418 95.23 211.91 94.942C212.402 94.654 213.02 94.45 213.764 94.33L217.148 93.772V95.374L214.16 95.896C213.62 95.992 213.224 96.166 212.972 96.418C212.72 96.658 212.594 96.97 212.594 97.354C212.594 97.726 212.732 98.032 213.008 98.272C213.296 98.5 213.662 98.614 214.106 98.614C214.658 98.614 215.138 98.494 215.546 98.254C215.966 98.014 216.29 97.696 216.518 97.3C216.746 96.892 216.86 96.442 216.86 95.95V93.448C216.86 92.968 216.68 92.578 216.32 92.278C215.972 91.966 215.504 91.81 214.916 91.81C214.376 91.81 213.902 91.954 213.494 92.242C213.098 92.518 212.804 92.878 212.612 93.322L210.92 92.476C211.1 91.996 211.394 91.576 211.802 91.216C212.21 90.844 212.684 90.556 213.224 90.352C213.776 90.148 214.358 90.046 214.97 90.046C215.738 90.046 216.416 90.19 217.004 90.478C217.604 90.766 218.066 91.168 218.39 91.684C218.726 92.188 218.894 92.776 218.894 93.448V100H216.95V98.236L217.364 98.29C217.136 98.686 216.842 99.028 216.482 99.316C216.134 99.604 215.732 99.826 215.276 99.982C214.832 100.138 214.334 100.216 213.782 100.216ZM221.272 100V90.262H223.216V92.17L222.982 91.918C223.222 91.306 223.606 90.844 224.134 90.532C224.662 90.208 225.274 90.046 225.97 90.046C226.69 90.046 227.326 90.202 227.878 90.514C228.43 90.826 228.862 91.258 229.174 91.81C229.486 92.362 229.642 92.998 229.642 93.718V100H227.626V94.258C227.626 93.766 227.536 93.352 227.356 93.016C227.176 92.668 226.918 92.404 226.582 92.224C226.258 92.032 225.886 91.936 225.466 91.936C225.046 91.936 224.668 92.032 224.332 92.224C224.008 92.404 223.756 92.668 223.576 93.016C223.396 93.364 223.306 93.778 223.306 94.258V100H221.272ZM231.819 100V90.262H233.763V92.17L233.529 91.918C233.769 91.306 234.153 90.844 234.681 90.532C235.209 90.208 235.821 90.046 236.517 90.046C237.237 90.046 237.873 90.202 238.425 90.514C238.977 90.826 239.409 91.258 239.721 91.81C240.033 92.362 240.189 92.998 240.189 93.718V100H238.173V94.258C238.173 93.766 238.083 93.352 237.903 93.016C237.723 92.668 237.465 92.404 237.129 92.224C236.805 92.032 236.433 91.936 236.013 91.936C235.593 91.936 235.215 92.032 234.879 92.224C234.555 92.404 234.303 92.668 234.123 93.016C233.943 93.364 233.853 93.778 233.853 94.258V100H231.819ZM242.366 100V90.262H244.4V100H242.366ZM242.366 88.93V86.59H244.4V88.93H242.366ZM246.778 100V90.262H248.722V92.17L248.488 91.918C248.728 91.306 249.112 90.844 249.64 90.532C250.168 90.208 250.78 90.046 251.476 90.046C252.196 90.046 252.832 90.202 253.384 90.514C253.936 90.826 254.368 91.258 254.68 91.81C254.992 92.362 255.148 92.998 255.148 93.718V100H253.132V94.258C253.132 93.766 253.042 93.352 252.862 93.016C252.682 92.668 252.424 92.404 252.088 92.224C251.764 92.032 251.392 91.936 250.972 91.936C250.552 91.936 250.174 92.032 249.838 92.224C249.514 92.404 249.262 92.668 249.082 93.016C248.902 93.364 248.812 93.778 248.812 94.258V100H246.778ZM262.023 103.96C261.315 103.96 260.661 103.846 260.061 103.618C259.461 103.39 258.945 103.072 258.513 102.664C258.081 102.268 257.757 101.8 257.541 101.26L259.413 100.486C259.581 100.942 259.887 101.32 260.331 101.62C260.787 101.92 261.345 102.07 262.005 102.07C262.521 102.07 262.983 101.968 263.391 101.764C263.799 101.572 264.123 101.284 264.363 100.9C264.603 100.528 264.723 100.078 264.723 99.55V97.354L265.083 97.768C264.747 98.392 264.279 98.866 263.679 99.19C263.091 99.514 262.425 99.676 261.681 99.676C260.781 99.676 259.971 99.466 259.251 99.046C258.531 98.626 257.961 98.05 257.541 97.318C257.133 96.586 256.929 95.764 256.929 94.852C256.929 93.928 257.133 93.106 257.541 92.386C257.961 91.666 258.525 91.096 259.233 90.676C259.941 90.256 260.751 90.046 261.663 90.046C262.407 90.046 263.067 90.208 263.643 90.532C264.231 90.844 264.711 91.3 265.083 91.9L264.813 92.404V90.262H266.739V99.55C266.739 100.39 266.535 101.14 266.127 101.8C265.731 102.472 265.179 103 264.471 103.384C263.763 103.768 262.947 103.96 262.023 103.96ZM261.915 97.786C262.455 97.786 262.935 97.66 263.355 97.408C263.775 97.144 264.105 96.796 264.345 96.364C264.597 95.92 264.723 95.422 264.723 94.87C264.723 94.318 264.597 93.82 264.345 93.376C264.093 92.932 263.757 92.584 263.337 92.332C262.917 92.068 262.443 91.936 261.915 91.936C261.363 91.936 260.871 92.068 260.439 92.332C260.007 92.584 259.665 92.932 259.413 93.376C259.173 93.808 259.053 94.306 259.053 94.87C259.053 95.41 259.173 95.902 259.413 96.346C259.665 96.79 260.007 97.144 260.439 97.408C260.871 97.66 261.363 97.786 261.915 97.786Z" fill="#201C44"/>
<path d="M99.135 131V121.4H96.165V119.825H103.815V121.4H100.89V131H99.135ZM107.834 131.18C107.054 131.18 106.339 130.995 105.689 130.625C105.049 130.255 104.539 129.75 104.159 129.11C103.779 128.47 103.589 127.745 103.589 126.935C103.589 126.115 103.779 125.39 104.159 124.76C104.539 124.12 105.049 123.62 105.689 123.26C106.329 122.89 107.044 122.705 107.834 122.705C108.634 122.705 109.349 122.89 109.979 123.26C110.619 123.62 111.124 124.12 111.494 124.76C111.874 125.39 112.064 126.115 112.064 126.935C112.064 127.755 111.874 128.485 111.494 129.125C111.114 129.765 110.604 130.27 109.964 130.64C109.324 131 108.614 131.18 107.834 131.18ZM107.834 129.605C108.314 129.605 108.739 129.49 109.109 129.26C109.479 129.03 109.769 128.715 109.979 128.315C110.199 127.905 110.309 127.445 110.309 126.935C110.309 126.425 110.199 125.97 109.979 125.57C109.769 125.17 109.479 124.855 109.109 124.625C108.739 124.395 108.314 124.28 107.834 124.28C107.364 124.28 106.939 124.395 106.559 124.625C106.189 124.855 105.894 125.17 105.674 125.57C105.464 125.97 105.359 126.425 105.359 126.935C105.359 127.445 105.464 127.905 105.674 128.315C105.894 128.715 106.189 129.03 106.559 129.26C106.939 129.49 107.364 129.605 107.834 129.605ZM117.082 131.09C116.232 131.09 115.572 130.85 115.102 130.37C114.632 129.89 114.397 129.215 114.397 128.345V124.415H112.972V122.885H113.197C113.577 122.885 113.872 122.775 114.082 122.555C114.292 122.335 114.397 122.035 114.397 121.655V121.025H116.092V122.885H117.937V124.415H116.092V128.27C116.092 128.55 116.137 128.79 116.227 128.99C116.317 129.18 116.462 129.33 116.662 129.44C116.862 129.54 117.122 129.59 117.442 129.59C117.522 129.59 117.612 129.585 117.712 129.575C117.812 129.565 117.907 129.555 117.997 129.545V131C117.857 131.02 117.702 131.04 117.532 131.06C117.362 131.08 117.212 131.09 117.082 131.09ZM122.008 131.18C121.458 131.18 120.973 131.085 120.553 130.895C120.143 130.695 119.823 130.425 119.593 130.085C119.363 129.735 119.248 129.325 119.248 128.855C119.248 128.415 119.343 128.02 119.533 127.67C119.733 127.32 120.038 127.025 120.448 126.785C120.858 126.545 121.373 126.375 121.993 126.275L124.813 125.81V127.145L122.323 127.58C121.873 127.66 121.543 127.805 121.333 128.015C121.123 128.215 121.018 128.475 121.018 128.795C121.018 129.105 121.133 129.36 121.363 129.56C121.603 129.75 121.908 129.845 122.278 129.845C122.738 129.845 123.138 129.745 123.478 129.545C123.828 129.345 124.098 129.08 124.288 128.75C124.478 128.41 124.573 128.035 124.573 127.625V125.54C124.573 125.14 124.423 124.815 124.123 124.565C123.833 124.305 123.443 124.175 122.953 124.175C122.503 124.175 122.108 124.295 121.768 124.535C121.438 124.765 121.193 125.065 121.033 125.435L119.623 124.73C119.773 124.33 120.018 123.98 120.358 123.68C120.698 123.37 121.093 123.13 121.543 122.96C122.003 122.79 122.488 122.705 122.998 122.705C123.638 122.705 124.203 122.825 124.693 123.065C125.193 123.305 125.578 123.64 125.848 124.07C126.128 124.49 126.268 124.98 126.268 125.54V131H124.648V129.53L124.993 129.575C124.803 129.905 124.558 130.19 124.258 130.43C123.968 130.67 123.633 130.855 123.253 130.985C122.883 131.115 122.468 131.18 122.008 131.18ZM128.25 131V119.645H129.945V131H128.25ZM139.919 131.18C139.129 131.18 138.394 131.035 137.714 130.745C137.044 130.455 136.459 130.055 135.959 129.545C135.469 129.025 135.084 128.415 134.804 127.715C134.524 127.015 134.384 126.245 134.384 125.405C134.384 124.575 134.519 123.81 134.789 123.11C135.069 122.4 135.459 121.79 135.959 121.28C136.459 120.76 137.044 120.36 137.714 120.08C138.384 119.79 139.119 119.645 139.919 119.645C140.709 119.645 141.414 119.78 142.034 120.05C142.664 120.32 143.194 120.675 143.624 121.115C144.054 121.545 144.364 122.015 144.554 122.525L142.964 123.275C142.724 122.675 142.339 122.19 141.809 121.82C141.289 121.44 140.659 121.25 139.919 121.25C139.179 121.25 138.524 121.425 137.954 121.775C137.384 122.125 136.939 122.61 136.619 123.23C136.309 123.85 136.154 124.575 136.154 125.405C136.154 126.235 136.309 126.965 136.619 127.595C136.939 128.215 137.384 128.7 137.954 129.05C138.524 129.39 139.179 129.56 139.919 129.56C140.659 129.56 141.289 129.375 141.809 129.005C142.339 128.635 142.724 128.15 142.964 127.55L144.554 128.3C144.364 128.8 144.054 129.27 143.624 129.71C143.194 130.15 142.664 130.505 142.034 130.775C141.414 131.045 140.709 131.18 139.919 131.18ZM146.209 131V119.645H147.904V131H146.209ZM149.886 131V122.885H151.581V131H149.886ZM149.886 121.775V119.825H151.581V121.775H149.886ZM157.372 131.18C156.562 131.18 155.842 130.995 155.212 130.625C154.592 130.245 154.107 129.735 153.757 129.095C153.407 128.445 153.232 127.72 153.232 126.92C153.232 126.1 153.407 125.375 153.757 124.745C154.117 124.115 154.597 123.62 155.197 123.26C155.797 122.89 156.477 122.705 157.237 122.705C157.847 122.705 158.392 122.81 158.872 123.02C159.352 123.23 159.757 123.52 160.087 123.89C160.417 124.25 160.667 124.665 160.837 125.135C161.017 125.605 161.107 126.105 161.107 126.635C161.107 126.765 161.102 126.9 161.092 127.04C161.082 127.18 161.062 127.31 161.032 127.43H154.567V126.08H160.072L159.262 126.695C159.362 126.205 159.327 125.77 159.157 125.39C158.997 125 158.747 124.695 158.407 124.475C158.077 124.245 157.687 124.13 157.237 124.13C156.787 124.13 156.387 124.245 156.037 124.475C155.687 124.695 155.417 125.015 155.227 125.435C155.037 125.845 154.962 126.345 155.002 126.935C154.952 127.485 155.027 127.965 155.227 128.375C155.437 128.785 155.727 129.105 156.097 129.335C156.477 129.565 156.907 129.68 157.387 129.68C157.877 129.68 158.292 129.57 158.632 129.35C158.982 129.13 159.257 128.845 159.457 128.495L160.837 129.17C160.677 129.55 160.427 129.895 160.087 130.205C159.757 130.505 159.357 130.745 158.887 130.925C158.427 131.095 157.922 131.18 157.372 131.18ZM162.761 131V122.885H164.381V124.475L164.186 124.265C164.386 123.755 164.706 123.37 165.146 123.11C165.586 122.84 166.096 122.705 166.676 122.705C167.276 122.705 167.806 122.835 168.266 123.095C168.726 123.355 169.086 123.715 169.346 124.175C169.606 124.635 169.736 125.165 169.736 125.765V131H168.056V126.215C168.056 125.805 167.981 125.46 167.831 125.18C167.681 124.89 167.466 124.67 167.186 124.52C166.916 124.36 166.606 124.28 166.256 124.28C165.906 124.28 165.591 124.36 165.311 124.52C165.041 124.67 164.831 124.89 164.681 125.18C164.531 125.47 164.456 125.815 164.456 126.215V131H162.761ZM175.061 131.09C174.211 131.09 173.551 130.85 173.081 130.37C172.611 129.89 172.376 129.215 172.376 128.345V124.415H170.951V122.885H171.176C171.556 122.885 171.851 122.775 172.061 122.555C172.271 122.335 172.376 122.035 172.376 121.655V121.025H174.071V122.885H175.916V124.415H174.071V128.27C174.071 128.55 174.116 128.79 174.206 128.99C174.296 129.18 174.441 129.33 174.641 129.44C174.841 129.54 175.101 129.59 175.421 129.59C175.501 129.59 175.591 129.585 175.691 129.575C175.791 129.565 175.886 129.555 175.976 129.545V131C175.836 131.02 175.681 131.04 175.511 131.06C175.341 131.08 175.191 131.09 175.061 131.09ZM180.63 131.18C179.8 131.18 179.07 130.975 178.44 130.565C177.82 130.155 177.385 129.605 177.135 128.915L178.44 128.3C178.66 128.76 178.96 129.125 179.34 129.395C179.73 129.665 180.16 129.8 180.63 129.8C181.03 129.8 181.355 129.71 181.605 129.53C181.855 129.35 181.98 129.105 181.98 128.795C181.98 128.595 181.925 128.435 181.815 128.315C181.705 128.185 181.565 128.08 181.395 128C181.235 127.92 181.07 127.86 180.9 127.82L179.625 127.46C178.925 127.26 178.4 126.96 178.05 126.56C177.71 126.15 177.54 125.675 177.54 125.135C177.54 124.645 177.665 124.22 177.915 123.86C178.165 123.49 178.51 123.205 178.95 123.005C179.39 122.805 179.885 122.705 180.435 122.705C181.175 122.705 181.835 122.89 182.415 123.26C182.995 123.62 183.405 124.125 183.645 124.775L182.34 125.39C182.18 125 181.925 124.69 181.575 124.46C181.235 124.23 180.85 124.115 180.42 124.115C180.05 124.115 179.755 124.205 179.535 124.385C179.315 124.555 179.205 124.78 179.205 125.06C179.205 125.25 179.255 125.41 179.355 125.54C179.455 125.66 179.585 125.76 179.745 125.84C179.905 125.91 180.07 125.97 180.24 126.02L181.56 126.41C182.23 126.6 182.745 126.9 183.105 127.31C183.465 127.71 183.645 128.19 183.645 128.75C183.645 129.23 183.515 129.655 183.255 130.025C183.005 130.385 182.655 130.67 182.205 130.88C181.755 131.08 181.23 131.18 180.63 131.18Z" fill="#131126"/>
<defs>
<filter id="filter0_d_1_388" x="0.27" y="0" width="451" height="398" filterUnits="userSpaceOnUse" color-interpolation-filters="sRGB">
<feFlood flood-opacity="0" result="BackgroundImageFix"/>
<feColorMatrix in="SourceAlpha" type="matrix" values="0 0 0 0 0 0 0 0 0 0 0 0 0 0 0 0 0 0 127 0" result="hardAlpha"/>
<feOffset dx="24.27" dy="41"/>
<feGaussianBlur stdDeviation="50"/>
<feComposite in2="hardAlpha" operator="out"/>
<feColorMatrix type="matrix" values="0 0 0 0 0 0 0 0 0 0 0 0 0 0 0 0 0 0 0.06 0"/>
<feBlend mode="normal" in2="BackgroundImageFix" result="effect1_dropShadow_1_388"/>
<feBlend mode="normal" in="SourceGraphic" in2="effect1_dropShadow_1_388" result="shape"/>
</filter>
</defs>
</svg>
