<svg width="362" height="336" viewBox="0 0 362 336" fill="none" xmlns="http://www.w3.org/2000/svg">
<g filter="url(#filter0_d_1_398)">
<rect x="91" y="79" width="193" height="166.379" rx="4.75369" fill="white"/>
</g>
<path d="M110.973 111.064V101.148H112.384L117.841 108.495L117.109 108.641V101.148H118.919V111.064H117.495L112.118 103.663L112.783 103.517V111.064H110.973ZM124.126 111.224C123.381 111.224 122.729 111.055 122.17 110.718C121.611 110.381 121.176 109.924 120.865 109.347C120.555 108.77 120.399 108.131 120.399 107.43C120.399 106.703 120.555 106.059 120.865 105.5C121.185 104.932 121.615 104.484 122.156 104.156C122.706 103.828 123.319 103.663 123.993 103.663C124.561 103.663 125.058 103.757 125.484 103.943C125.919 104.129 126.287 104.387 126.589 104.715C126.89 105.043 127.121 105.42 127.281 105.846C127.441 106.263 127.52 106.716 127.52 107.204C127.52 107.328 127.512 107.457 127.494 107.59C127.485 107.723 127.463 107.838 127.427 107.936H121.837V106.605H126.442L125.617 107.231C125.697 106.822 125.675 106.459 125.55 106.139C125.435 105.82 125.24 105.567 124.965 105.38C124.699 105.194 124.375 105.101 123.993 105.101C123.629 105.101 123.305 105.194 123.021 105.38C122.738 105.558 122.52 105.824 122.369 106.179C122.227 106.525 122.174 106.947 122.21 107.444C122.174 107.887 122.232 108.282 122.383 108.628C122.542 108.965 122.773 109.227 123.075 109.413C123.385 109.6 123.74 109.693 124.14 109.693C124.539 109.693 124.876 109.609 125.151 109.44C125.435 109.272 125.657 109.045 125.817 108.761L127.228 109.453C127.086 109.799 126.864 110.106 126.562 110.372C126.26 110.638 125.901 110.847 125.484 110.997C125.076 111.148 124.623 111.224 124.126 111.224ZM130.666 111.064L128.177 103.823H130.013L131.837 109.32L131.198 109.307L133.141 103.823H134.685L136.615 109.307L135.977 109.32L137.8 103.823H139.637L137.148 111.064H135.591L133.621 105.327H134.206L132.21 111.064H130.666ZM145.141 111.064L142.293 103.823H144.196L146.259 109.52H145.554L147.63 103.823H149.534L146.685 111.064H145.141ZM150.497 111.064V103.823H152.241V111.064H150.497ZM150.497 103.011V101.148H152.241V103.011H150.497ZM156.606 111.224C155.834 111.224 155.16 111.042 154.583 110.678C154.015 110.305 153.625 109.804 153.412 109.174L154.716 108.548C154.903 108.956 155.16 109.276 155.488 109.507C155.825 109.737 156.198 109.853 156.606 109.853C156.926 109.853 157.179 109.782 157.365 109.64C157.551 109.498 157.644 109.311 157.644 109.081C157.644 108.939 157.605 108.823 157.525 108.735C157.454 108.637 157.352 108.557 157.219 108.495C157.094 108.424 156.957 108.366 156.806 108.322L155.621 107.989C155.009 107.812 154.543 107.541 154.224 107.177C153.913 106.814 153.758 106.383 153.758 105.886C153.758 105.443 153.869 105.057 154.091 104.728C154.321 104.391 154.636 104.129 155.036 103.943C155.444 103.757 155.91 103.663 156.433 103.663C157.117 103.663 157.72 103.828 158.243 104.156C158.767 104.484 159.14 104.946 159.362 105.54L158.03 106.166C157.906 105.837 157.698 105.576 157.405 105.38C157.112 105.185 156.784 105.088 156.42 105.088C156.127 105.088 155.896 105.154 155.728 105.287C155.559 105.42 155.475 105.593 155.475 105.806C155.475 105.939 155.51 106.055 155.581 106.152C155.652 106.25 155.75 106.33 155.874 106.392C156.007 106.454 156.158 106.512 156.327 106.565L157.485 106.911C158.079 107.089 158.536 107.355 158.856 107.71C159.184 108.065 159.348 108.5 159.348 109.014C159.348 109.449 159.233 109.835 159.002 110.172C158.771 110.5 158.452 110.758 158.044 110.944C157.636 111.131 157.156 111.224 156.606 111.224ZM160.688 111.064V103.823H162.432V111.064H160.688ZM160.688 103.011V101.148H162.432V103.011H160.688ZM167.343 111.144C166.526 111.144 165.892 110.922 165.439 110.478C164.996 110.026 164.774 109.391 164.774 108.575V105.38H163.523V103.823H163.656C164.011 103.823 164.286 103.73 164.481 103.544C164.676 103.357 164.774 103.087 164.774 102.732V102.173H166.518V103.823H168.181V105.38H166.518V108.482C166.518 108.721 166.557 108.925 166.637 109.094C166.726 109.263 166.859 109.391 167.037 109.48C167.223 109.569 167.458 109.613 167.742 109.613C167.804 109.613 167.875 109.609 167.955 109.6C168.044 109.591 168.128 109.582 168.208 109.573V111.064C168.084 111.082 167.942 111.099 167.782 111.117C167.622 111.135 167.476 111.144 167.343 111.144ZM173.016 111.224C172.306 111.224 171.658 111.06 171.072 110.731C170.496 110.403 170.034 109.955 169.688 109.387C169.351 108.819 169.182 108.171 169.182 107.444C169.182 106.716 169.351 106.068 169.688 105.5C170.034 104.932 170.496 104.484 171.072 104.156C171.649 103.828 172.297 103.663 173.016 103.663C173.726 103.663 174.369 103.828 174.946 104.156C175.522 104.484 175.979 104.932 176.317 105.5C176.663 106.059 176.836 106.707 176.836 107.444C176.836 108.171 176.663 108.819 176.317 109.387C175.971 109.955 175.509 110.403 174.932 110.731C174.356 111.06 173.717 111.224 173.016 111.224ZM173.016 109.626C173.406 109.626 173.748 109.533 174.041 109.347C174.342 109.161 174.577 108.903 174.746 108.575C174.923 108.238 175.012 107.861 175.012 107.444C175.012 107.018 174.923 106.645 174.746 106.325C174.577 105.997 174.342 105.74 174.041 105.553C173.748 105.358 173.406 105.261 173.016 105.261C172.616 105.261 172.266 105.358 171.964 105.553C171.662 105.74 171.423 105.997 171.245 106.325C171.077 106.645 170.992 107.018 170.992 107.444C170.992 107.861 171.077 108.238 171.245 108.575C171.423 108.903 171.662 109.161 171.964 109.347C172.266 109.533 172.616 109.626 173.016 109.626ZM178.158 111.064V103.823H179.795V105.434L179.662 105.194C179.831 104.653 180.092 104.276 180.447 104.063C180.811 103.85 181.246 103.743 181.752 103.743H182.178V105.287H181.552C181.055 105.287 180.656 105.443 180.354 105.753C180.053 106.055 179.902 106.481 179.902 107.031V111.064H178.158ZM185.892 111.224C185.12 111.224 184.445 111.042 183.868 110.678C183.301 110.305 182.91 109.804 182.697 109.174L184.002 108.548C184.188 108.956 184.445 109.276 184.774 109.507C185.111 109.737 185.483 109.853 185.892 109.853C186.211 109.853 186.464 109.782 186.65 109.64C186.837 109.498 186.93 109.311 186.93 109.081C186.93 108.939 186.89 108.823 186.81 108.735C186.739 108.637 186.637 108.557 186.504 108.495C186.38 108.424 186.242 108.366 186.091 108.322L184.907 107.989C184.294 107.812 183.829 107.541 183.509 107.177C183.199 106.814 183.043 106.383 183.043 105.886C183.043 105.443 183.154 105.057 183.376 104.728C183.607 104.391 183.922 104.129 184.321 103.943C184.729 103.757 185.195 103.663 185.719 103.663C186.402 103.663 187.005 103.828 187.529 104.156C188.052 104.484 188.425 104.946 188.647 105.54L187.316 106.166C187.192 105.837 186.983 105.576 186.69 105.38C186.397 105.185 186.069 105.088 185.705 105.088C185.412 105.088 185.182 105.154 185.013 105.287C184.845 105.42 184.76 105.593 184.76 105.806C184.76 105.939 184.796 106.055 184.867 106.152C184.938 106.25 185.035 106.33 185.16 106.392C185.293 106.454 185.444 106.512 185.612 106.565L186.77 106.911C187.365 107.089 187.822 107.355 188.141 107.71C188.469 108.065 188.634 108.5 188.634 109.014C188.634 109.449 188.518 109.835 188.288 110.172C188.057 110.5 187.737 110.758 187.329 110.944C186.921 111.131 186.442 111.224 185.892 111.224Z" fill="#131126"/>
<path d="M116.023 146.766C114.996 146.766 114.103 146.575 113.342 146.195C112.594 145.802 112.011 145.276 111.593 144.617C111.187 143.958 110.984 143.235 110.984 142.449C110.984 141.524 111.231 140.744 111.726 140.11C112.22 139.464 112.936 138.988 113.874 138.684L113.722 139.312C113.05 139.096 112.518 138.678 112.125 138.057C111.745 137.436 111.555 136.751 111.555 136.003C111.555 135.255 111.745 134.59 112.125 134.007C112.505 133.423 113.031 132.967 113.703 132.638C114.375 132.308 115.148 132.143 116.023 132.143C116.885 132.143 117.646 132.308 118.305 132.638C118.977 132.967 119.503 133.423 119.883 134.007C120.276 134.59 120.473 135.255 120.473 136.003C120.473 136.764 120.276 137.455 119.883 138.076C119.503 138.684 118.977 139.103 118.305 139.331L118.172 138.665C119.11 138.995 119.826 139.483 120.32 140.129C120.815 140.763 121.062 141.543 121.062 142.468C121.062 143.254 120.853 143.977 120.435 144.636C120.029 145.282 119.446 145.802 118.685 146.195C117.937 146.575 117.05 146.766 116.023 146.766ZM116.023 144.579C116.518 144.579 116.949 144.49 117.316 144.313C117.684 144.122 117.969 143.863 118.172 143.533C118.375 143.191 118.476 142.804 118.476 142.373C118.476 141.929 118.375 141.549 118.172 141.232C117.969 140.903 117.684 140.649 117.316 140.472C116.949 140.281 116.518 140.186 116.023 140.186C115.529 140.186 115.098 140.281 114.73 140.472C114.375 140.649 114.096 140.903 113.893 141.232C113.691 141.549 113.589 141.929 113.589 142.373C113.589 142.804 113.691 143.191 113.893 143.533C114.096 143.863 114.375 144.122 114.73 144.313C115.098 144.49 115.529 144.579 116.023 144.579ZM116.023 138C116.391 138 116.714 137.917 116.993 137.753C117.272 137.588 117.487 137.372 117.639 137.106C117.804 136.827 117.887 136.51 117.887 136.155C117.887 135.8 117.804 135.49 117.639 135.224C117.487 134.945 117.272 134.729 116.993 134.577C116.714 134.412 116.391 134.33 116.023 134.33C115.656 134.33 115.326 134.412 115.034 134.577C114.755 134.729 114.534 134.945 114.369 135.224C114.217 135.49 114.141 135.8 114.141 136.155C114.141 136.51 114.217 136.827 114.369 137.106C114.534 137.372 114.755 137.588 115.034 137.753C115.326 137.917 115.656 138 116.023 138ZM129.216 146.537V143.419H122.713V141.251L129.064 132.371H131.764V141.251H133.837V143.419H131.764V146.537H129.216ZM124.615 142.183L124.158 141.251H129.216V134.406L129.882 134.615L124.615 142.183ZM137.379 146.537L148.864 132.371H151.526L140.041 146.537H137.379ZM139.585 139.559C138.888 139.559 138.254 139.394 137.683 139.065C137.126 138.722 136.682 138.272 136.352 137.714C136.023 137.157 135.858 136.536 135.858 135.851C135.858 135.167 136.023 134.545 136.352 133.988C136.682 133.417 137.126 132.967 137.683 132.638C138.254 132.308 138.888 132.143 139.585 132.143C140.295 132.143 140.929 132.308 141.486 132.638C142.044 132.967 142.488 133.417 142.817 133.988C143.147 134.545 143.312 135.167 143.312 135.851C143.312 136.536 143.147 137.157 142.817 137.714C142.488 138.272 142.044 138.722 141.486 139.065C140.929 139.394 140.295 139.559 139.585 139.559ZM139.585 137.638C139.965 137.638 140.282 137.556 140.536 137.391C140.789 137.214 140.979 136.992 141.106 136.726C141.246 136.447 141.315 136.155 141.315 135.851C141.315 135.534 141.246 135.243 141.106 134.976C140.979 134.71 140.789 134.488 140.536 134.311C140.282 134.133 139.965 134.045 139.585 134.045C139.23 134.045 138.919 134.133 138.653 134.311C138.4 134.488 138.203 134.716 138.064 134.995C137.924 135.262 137.855 135.547 137.855 135.851C137.855 136.143 137.924 136.428 138.064 136.707C138.203 136.986 138.4 137.214 138.653 137.391C138.919 137.556 139.23 137.638 139.585 137.638ZM149.244 146.766C148.547 146.766 147.913 146.601 147.343 146.271C146.785 145.929 146.342 145.479 146.012 144.921C145.682 144.363 145.518 143.742 145.518 143.058C145.518 142.373 145.682 141.752 146.012 141.194C146.342 140.624 146.785 140.174 147.343 139.844C147.913 139.515 148.547 139.35 149.244 139.35C149.954 139.35 150.588 139.515 151.146 139.844C151.704 140.174 152.147 140.624 152.477 141.194C152.807 141.752 152.971 142.373 152.971 143.058C152.971 143.742 152.807 144.363 152.477 144.921C152.147 145.479 151.704 145.929 151.146 146.271C150.588 146.601 149.954 146.766 149.244 146.766ZM149.244 144.845C149.612 144.845 149.923 144.763 150.176 144.598C150.442 144.42 150.639 144.199 150.766 143.932C150.905 143.653 150.975 143.362 150.975 143.058C150.975 142.741 150.905 142.449 150.766 142.183C150.639 141.917 150.442 141.695 150.176 141.517C149.923 141.34 149.612 141.251 149.244 141.251C148.89 141.251 148.579 141.34 148.313 141.517C148.059 141.695 147.863 141.923 147.723 142.202C147.584 142.468 147.514 142.753 147.514 143.058C147.514 143.349 147.584 143.634 147.723 143.913C147.863 144.192 148.059 144.42 148.313 144.598C148.579 144.763 148.89 144.845 149.244 144.845Z" fill="#131126"/>
<path d="M162.731 146.946V145.226H161.011V144.37H162.731V142.667H163.587V144.37H165.29V145.226H163.587V146.946H162.731ZM168.966 147.048C168.458 147.048 168.013 146.911 167.631 146.638C167.249 146.358 166.949 145.973 166.732 145.482C166.521 144.986 166.416 144.41 166.416 143.754C166.416 143.092 166.521 142.516 166.732 142.025C166.949 141.535 167.246 141.153 167.622 140.879C168.004 140.605 168.449 140.468 168.957 140.468C169.465 140.468 169.907 140.605 170.283 140.879C170.665 141.153 170.962 141.538 171.173 142.034C171.39 142.525 171.498 143.098 171.498 143.754C171.498 144.41 171.393 144.986 171.182 145.482C170.971 145.973 170.674 146.358 170.292 146.638C169.915 146.911 169.473 147.048 168.966 147.048ZM168.966 146.124C169.279 146.124 169.55 146.027 169.778 145.833C170.007 145.639 170.183 145.365 170.309 145.012C170.434 144.658 170.497 144.239 170.497 143.754C170.497 143.269 170.434 142.85 170.309 142.496C170.183 142.142 170.007 141.869 169.778 141.675C169.55 141.481 169.276 141.384 168.957 141.384C168.643 141.384 168.372 141.481 168.144 141.675C167.916 141.869 167.739 142.142 167.614 142.496C167.488 142.85 167.425 143.269 167.425 143.754C167.425 144.233 167.488 144.652 167.614 145.012C167.739 145.365 167.916 145.639 168.144 145.833C168.378 146.027 168.652 146.124 168.966 146.124ZM173.011 146.946V145.833H173.995V146.946H173.011ZM178.357 146.946V145.508H175.319V144.669L178.314 140.571H179.315V144.669H180.196V145.508H179.315V146.946H178.357ZM176.063 145.037L175.901 144.669H178.357V141.375L178.63 141.461L176.063 145.037ZM181.783 146.946L186.969 140.571H188.047L182.861 146.946H181.783ZM182.759 143.805C182.445 143.805 182.163 143.731 181.912 143.583C181.661 143.429 181.458 143.226 181.304 142.975C181.156 142.724 181.082 142.445 181.082 142.137C181.082 141.829 181.156 141.549 181.304 141.298C181.458 141.041 181.661 140.839 181.912 140.691C182.163 140.542 182.445 140.468 182.759 140.468C183.073 140.468 183.355 140.542 183.606 140.691C183.857 140.839 184.057 141.041 184.205 141.298C184.353 141.549 184.427 141.829 184.427 142.137C184.427 142.445 184.353 142.724 184.205 142.975C184.057 143.226 183.857 143.429 183.606 143.583C183.355 143.731 183.073 143.805 182.759 143.805ZM182.759 143.027C182.936 143.027 183.087 142.984 183.212 142.898C183.343 142.813 183.443 142.701 183.512 142.565C183.58 142.428 183.614 142.285 183.614 142.137C183.614 141.983 183.58 141.84 183.512 141.709C183.443 141.572 183.343 141.461 183.212 141.375C183.087 141.29 182.936 141.247 182.759 141.247C182.588 141.247 182.436 141.29 182.305 141.375C182.174 141.461 182.071 141.572 181.997 141.709C181.929 141.84 181.895 141.983 181.895 142.137C181.895 142.285 181.929 142.428 181.997 142.565C182.071 142.701 182.174 142.813 182.305 142.898C182.436 142.984 182.588 143.027 182.759 143.027ZM187.029 147.048C186.715 147.048 186.43 146.974 186.173 146.826C185.922 146.672 185.722 146.469 185.574 146.218C185.426 145.967 185.351 145.688 185.351 145.38C185.351 145.072 185.426 144.792 185.574 144.541C185.722 144.284 185.922 144.082 186.173 143.934C186.43 143.785 186.715 143.711 187.029 143.711C187.342 143.711 187.625 143.785 187.876 143.934C188.127 144.082 188.326 144.284 188.475 144.541C188.623 144.792 188.697 145.072 188.697 145.38C188.697 145.688 188.623 145.967 188.475 146.218C188.326 146.469 188.127 146.672 187.876 146.826C187.625 146.974 187.342 147.048 187.029 147.048ZM187.029 146.27C187.205 146.27 187.357 146.227 187.482 146.141C187.608 146.056 187.705 145.944 187.773 145.808C187.847 145.671 187.884 145.528 187.884 145.38C187.884 145.226 187.847 145.083 187.773 144.952C187.705 144.815 187.608 144.704 187.482 144.618C187.357 144.533 187.205 144.49 187.029 144.49C186.857 144.49 186.706 144.533 186.575 144.618C186.444 144.704 186.341 144.815 186.267 144.952C186.199 145.083 186.164 145.226 186.164 145.38C186.164 145.528 186.199 145.671 186.267 145.808C186.341 145.944 186.444 146.056 186.575 146.141C186.706 146.227 186.857 146.27 187.029 146.27Z" fill="#131126"/>
<rect x="113.818" y="192.138" width="15.2118" height="19.0148" rx="1.42611" fill="#FAE0E1"/>
<rect x="135.685" y="197.842" width="15.2118" height="13.3103" rx="1.42611" fill="#FAE0E1"/>
<rect x="157.551" y="178.827" width="15.2118" height="32.3251" rx="1.42611" fill="#FAE0E1"/>
<rect x="179.419" y="188.335" width="15.2118" height="22.8177" rx="1.42611" fill="#FAE0E1"/>
<rect x="201.286" y="161.714" width="15.2118" height="49.4384" rx="1.42611" fill="#3C3679"/>
<rect x="223.153" y="174.074" width="15.2118" height="37.0788" rx="1.42611" fill="#FAE0E1"/>
<rect x="245.02" y="174.074" width="15.2118" height="37.0788" rx="1.42611" fill="#FAE0E1"/>
<path d="M118.286 224.005V217.16H119.057L121.643 222.612L124.214 217.16H124.994V224H124.191V219.018L121.866 224.005H121.414L119.09 219.018V224.005H118.286Z" fill="#201C44"/>
<path d="M141.917 224.005V217.963H139.583V217.16H145.097V217.963H142.763V224.005H141.917Z" fill="#201C44"/>
<path d="M162.529 224.005L160.547 217.16H161.431L162.952 222.574L164.468 217.164L165.357 217.16L166.879 222.574L168.395 217.16H169.284L167.302 224.005H166.455L164.915 218.638L163.375 224.005H162.529Z" fill="#201C44"/>
<path d="M185.651 224.005V217.963H183.317V217.16H188.831V217.963H186.497V224.005H185.651Z" fill="#201C44"/>
<path d="M205.754 224.005V217.16H209.747V218.006H206.6V220.159H209.177V221.005H206.6V224.005H205.754Z" fill="#201C44"/>
<path d="M230.05 224.147C229.565 224.147 229.128 224.065 228.738 223.9C228.352 223.736 228.032 223.501 227.778 223.197C227.528 222.889 227.365 222.526 227.288 222.108L228.163 221.97C228.274 222.401 228.504 222.739 228.852 222.983C229.204 223.224 229.618 223.344 230.093 223.344C230.401 223.344 230.678 223.297 230.925 223.202C231.175 223.103 231.373 222.964 231.519 222.783C231.665 222.603 231.738 222.389 231.738 222.141C231.738 221.989 231.711 221.859 231.657 221.752C231.606 221.641 231.535 221.547 231.443 221.471C231.354 221.392 231.253 221.325 231.139 221.272C231.025 221.218 230.906 221.173 230.782 221.138L229.038 220.62C228.848 220.563 228.664 220.492 228.486 220.406C228.309 220.318 228.15 220.208 228.011 220.078C227.872 219.945 227.761 219.787 227.678 219.603C227.596 219.416 227.555 219.196 227.555 218.942C227.555 218.537 227.659 218.191 227.868 217.906C228.081 217.618 228.368 217.397 228.729 217.245C229.09 217.093 229.497 217.019 229.951 217.022C230.41 217.025 230.82 217.107 231.182 217.269C231.546 217.427 231.847 217.656 232.085 217.953C232.326 218.251 232.487 218.608 232.57 219.023L231.671 219.18C231.624 218.901 231.518 218.662 231.353 218.462C231.191 218.259 230.988 218.104 230.744 217.996C230.5 217.885 230.233 217.828 229.941 217.825C229.662 217.822 229.41 217.866 229.185 217.958C228.96 218.05 228.781 218.178 228.648 218.343C228.515 218.505 228.448 218.692 228.448 218.904C228.448 219.113 228.509 219.283 228.629 219.413C228.749 219.54 228.897 219.641 229.071 219.717C229.249 219.79 229.421 219.85 229.589 219.898L230.892 220.273C231.041 220.314 231.212 220.371 231.405 220.444C231.602 220.517 231.792 220.62 231.976 220.753C232.159 220.883 232.312 221.058 232.432 221.276C232.552 221.492 232.613 221.764 232.613 222.094C232.613 222.423 232.546 222.717 232.413 222.973C232.283 223.23 232.101 223.446 231.866 223.62C231.632 223.791 231.359 223.921 231.049 224.01C230.738 224.102 230.405 224.147 230.05 224.147Z" fill="#201C44"/>
<path d="M251.917 224.147C251.433 224.147 250.995 224.065 250.605 223.9C250.219 223.736 249.899 223.501 249.645 223.197C249.395 222.889 249.232 222.526 249.156 222.108L250.03 221.97C250.141 222.401 250.371 222.739 250.72 222.983C251.071 223.224 251.485 223.344 251.96 223.344C252.268 223.344 252.545 223.297 252.792 223.202C253.042 223.103 253.241 222.964 253.386 222.783C253.532 222.603 253.605 222.389 253.605 222.141C253.605 221.989 253.578 221.859 253.524 221.752C253.473 221.641 253.402 221.547 253.31 221.471C253.222 221.392 253.12 221.325 253.006 221.272C252.892 221.218 252.773 221.173 252.65 221.138L250.905 220.62C250.715 220.563 250.531 220.492 250.353 220.406C250.176 220.318 250.018 220.208 249.878 220.078C249.739 219.945 249.628 219.787 249.545 219.603C249.463 219.416 249.422 219.196 249.422 218.942C249.422 218.537 249.526 218.191 249.735 217.906C249.948 217.618 250.235 217.397 250.596 217.245C250.957 217.093 251.364 217.019 251.818 217.022C252.277 217.025 252.688 217.107 253.049 217.269C253.413 217.427 253.714 217.656 253.952 217.953C254.193 218.251 254.355 218.608 254.437 219.023L253.538 219.18C253.491 218.901 253.385 218.662 253.22 218.462C253.058 218.259 252.856 218.104 252.611 217.996C252.367 217.885 252.1 217.828 251.808 217.825C251.529 217.822 251.277 217.866 251.052 217.958C250.827 218.05 250.648 218.178 250.515 218.343C250.382 218.505 250.315 218.692 250.315 218.904C250.315 219.113 250.376 219.283 250.496 219.413C250.617 219.54 250.764 219.641 250.938 219.717C251.116 219.79 251.288 219.85 251.456 219.898L252.759 220.273C252.908 220.314 253.079 220.371 253.272 220.444C253.469 220.517 253.659 220.62 253.843 220.753C254.026 220.883 254.179 221.058 254.299 221.276C254.419 221.492 254.48 221.764 254.48 222.094C254.48 222.423 254.413 222.717 254.28 222.973C254.15 223.23 253.968 223.446 253.733 223.62C253.499 223.791 253.226 223.921 252.916 224.01C252.605 224.102 252.272 224.147 251.917 224.147Z" fill="#201C44"/>
<defs>
<filter id="filter0_d_1_398" x="0.0459685" y="0.247119" width="361.598" height="334.977" filterUnits="userSpaceOnUse" color-interpolation-filters="sRGB">
<feFlood flood-opacity="0" result="BackgroundImageFix"/>
<feColorMatrix in="SourceAlpha" type="matrix" values="0 0 0 0 0 0 0 0 0 0 0 0 0 0 0 0 0 0 127 0" result="hardAlpha"/>
<feOffset dx="-6.65517" dy="5.54598"/>
<feGaussianBlur stdDeviation="42.1494"/>
<feComposite in2="hardAlpha" operator="out"/>
<feColorMatrix type="matrix" values="0 0 0 0 0 0 0 0 0 0 0 0 0 0 0 0 0 0 0.06 0"/>
<feBlend mode="normal" in2="BackgroundImageFix" result="effect1_dropShadow_1_398"/>
<feBlend mode="normal" in="SourceGraphic" in2="effect1_dropShadow_1_398" result="shape"/>
</filter>
</defs>
</svg>
