<svg width="63" height="80" viewBox="0 0 63 80" fill="none" xmlns="http://www.w3.org/2000/svg">
<path d="M53.2717 25.3788C52.7438 24.8657 52.003 24.6325 51.2781 24.7518C50.5518 24.8705 49.9246 25.3265 49.5877 25.9808C48.429 28.2317 46.9572 30.3004 45.2256 32.129C45.3982 30.8081 45.4851 29.4792 45.4851 28.1468C45.4851 25.5901 45.1425 22.9591 44.4663 20.326C42.2434 11.6773 36.4142 4.36323 28.474 0.259273C27.7827 -0.0979088 26.959 -0.0853686 26.2788 0.292716C25.5987 0.670953 25.1533 1.36442 25.0923 2.14009C24.4733 9.99965 20.4249 17.1501 13.9791 21.7627C13.8938 21.8241 13.8091 21.8864 13.7244 21.9483C13.5489 22.0766 13.3836 22.198 13.2291 22.2999C13.2049 22.3161 13.1809 22.3325 13.1574 22.3493C9.10344 25.2518 5.75846 29.1209 3.48354 33.5395C1.17202 38.0339 0 42.8569 0 47.874C0 50.4299 0.342624 53.0609 1.01843 55.6944C4.58484 69.5756 17.0768 79.2704 31.3966 79.2704C48.7079 79.2704 62.7914 65.186 62.7914 47.874C62.7914 39.3369 59.4106 31.3479 53.2717 25.3788Z" fill="#3C3679"/>
<path d="M30.1947 57.6516C35.5013 57.6516 39.8032 53.3497 39.8032 48.043C39.8032 42.7363 35.5013 38.4344 30.1947 38.4344C24.888 38.4344 20.5861 42.7363 20.5861 48.043C20.5861 53.3497 24.888 57.6516 30.1947 57.6516Z" fill="#F8F8F8"/>
</svg>
