<svg width="24" height="25" viewBox="0 0 24 25" fill="none" xmlns="http://www.w3.org/2000/svg">
<path fill-rule="evenodd" clip-rule="evenodd" d="M12 4.00012C7.313 4.00012 3.5 7.81312 3.5 12.5001C3.5 17.1871 7.313 21.0001 12 21.0001C16.687 21.0001 20.5 17.1871 20.5 12.5001C20.5 7.81312 16.687 4.00012 12 4.00012ZM12 22.5001C6.486 22.5001 2 18.0141 2 12.5001C2 6.98612 6.486 2.50012 12 2.50012C17.514 2.50012 22 6.98612 22 12.5001C22 18.0141 17.514 22.5001 12 22.5001Z" fill="black"/>
<path fill-rule="evenodd" clip-rule="evenodd" d="M15.4312 16.1926C15.3002 16.1926 15.1682 16.1586 15.0472 16.0876L11.2772 13.8386C11.0512 13.7026 10.9112 13.4576 10.9112 13.1936V8.34558C10.9112 7.93158 11.2472 7.59558 11.6612 7.59558C12.0762 7.59558 12.4112 7.93158 12.4112 8.34558V12.7676L15.8162 14.7976C16.1712 15.0106 16.2882 15.4706 16.0762 15.8266C15.9352 16.0616 15.6862 16.1926 15.4312 16.1926Z" fill="black"/>
</svg>
