<svg width="25" height="25" viewBox="0 0 25 25" fill="none" xmlns="http://www.w3.org/2000/svg">
<mask id="mask0_1_201" style="mask-type:alpha" maskUnits="userSpaceOnUse" x="2" y="9" width="21" height="15">
<path fill-rule="evenodd" clip-rule="evenodd" d="M2.37467 9.29419H22.3743V23.0382H2.37467V9.29419Z" fill="white"/>
</mask>
<g mask="url(#mask0_1_201)">
<path fill-rule="evenodd" clip-rule="evenodd" d="M17.9397 23.0382H6.80967C4.36467 23.0382 2.37467 21.0492 2.37467 18.6032V13.7282C2.37467 11.2832 4.36467 9.29419 6.80967 9.29419H7.74267C8.15667 9.29419 8.49267 9.63019 8.49267 10.0442C8.49267 10.4582 8.15667 10.7942 7.74267 10.7942H6.80967C5.19067 10.7942 3.87467 12.1102 3.87467 13.7282V18.6032C3.87467 20.2222 5.19067 21.5382 6.80967 21.5382H17.9397C19.5577 21.5382 20.8747 20.2222 20.8747 18.6032V13.7192C20.8747 12.1062 19.5627 10.7942 17.9507 10.7942H17.0077C16.5937 10.7942 16.2577 10.4582 16.2577 10.0442C16.2577 9.63019 16.5937 9.29419 17.0077 9.29419H17.9507C20.3897 9.29419 22.3747 11.2792 22.3747 13.7192V18.6032C22.3747 21.0492 20.3847 23.0382 17.9397 23.0382Z" fill="black"/>
</g>
<mask id="mask1_1_201" style="mask-type:alpha" maskUnits="userSpaceOnUse" x="11" y="2" width="3" height="15">
<path fill-rule="evenodd" clip-rule="evenodd" d="M11.6243 2.50024H13.1243V16.0411H11.6243V2.50024Z" fill="white"/>
</mask>
<g mask="url(#mask1_1_201)">
<path fill-rule="evenodd" clip-rule="evenodd" d="M12.3743 16.0411C11.9603 16.0411 11.6243 15.7051 11.6243 15.2911V3.25012C11.6243 2.83612 11.9603 2.50012 12.3743 2.50012C12.7883 2.50012 13.1243 2.83612 13.1243 3.25012V15.2911C13.1243 15.7051 12.7883 16.0411 12.3743 16.0411Z" fill="black"/>
</g>
<path fill-rule="evenodd" clip-rule="evenodd" d="M9.45927 6.92889C9.26827 6.92889 9.07627 6.85589 8.93027 6.70989C8.63727 6.41789 8.63527 5.94389 8.92827 5.64989L11.8433 2.72189C12.1243 2.43889 12.6243 2.43889 12.9053 2.72189L15.8213 5.64989C16.1133 5.94389 16.1123 6.41789 15.8193 6.70989C15.5253 7.00189 15.0513 7.00189 14.7593 6.70789L12.3743 4.31389L9.99027 6.70789C9.84427 6.85589 9.65127 6.92889 9.45927 6.92889Z" fill="black"/>
</svg>
